<svg xmlns="http://www.w3.org/2000/svg" version="1.1" id="Layer_1" x="0" y="0" viewBox="0 0 600 600" style="enable-background:new 0 0 600 600" xml:space="preserve"><style>.st2{fill:#373a50}.st3{fill:#fff}.st4{fill:#ffdad9}.st5{fill:#111228}.st6{fill:#ff4129}.st7{fill:#c70000}.st22{fill:#fadf68}.st23{fill:#eac250}.st35{fill:#ebf2ff}.st111{fill:#3dcfa4}.st140{fill:#909eff}.st159{fill:#30bb93}.st162{fill:#b2c7ff}.st166{fill:#657bff}.st192{fill:#7a8aee}.st203{fill:#fefefe}</style><g id="Logo_Design"><linearGradient id="SVGID_1_" gradientUnits="userSpaceOnUse" x1="1411.671" y1="59.984" x2="1498.223" y2="438.853" gradientTransform="matrix(-1 0 0 1 1775.958 0)"><stop offset="0" style="stop-color:#cedcf9;stop-opacity:0"/><stop offset="1" style="stop-color:#c3d2ff"/></linearGradient><path d="M55.26 356.256c2.792 22.902 22.856 41.304 47.056 41.304h363.567c9.124 0 18.058-2.682 25.734-7.718 6.419-4.207 12.428-8.22 18.248-12.52 18.826-13.92 41.415-36.267 41.605-60.404.19-23.503 0-164.326-35.606-206.91-12.628-15.109-40.328-24.915-52.646-27.402-93.372-18.825-216.89 1.064-297.137 54.416-16.999 11.312-33.979 25.141-41.096 44.887-11.23 31.15 4.722 63.66 18.217 90.767 9.365 18.796 3.151 36.47-20.862 42.634-17.28 4.402-35.526 2.723-52.915 6.583-17.399 3.848-16.47 15.917-14.165 34.363z" style="fill:url(#SVGID_1_)"/><linearGradient id="SVGID_2_" gradientUnits="userSpaceOnUse" x1="1473.961" y1="511.911" x2="1481.607" y2="389.573" gradientTransform="matrix(-1 0 0 1 1775.958 0)"><stop offset="0" style="stop-color:#cedcf9;stop-opacity:0"/><stop offset="1" style="stop-color:#c3d2ff"/></linearGradient><path d="M77.741 451.455c12.338-11.107-21.761-15.55-20.673-34.794.57-10.074 18.61-15.484 35.687-18.354a55.369 55.369 0 0 1 9.181-.747h415.122c7.332 0 14.64 1.158 21.556 3.658 7.39 2.67 11.876 5.82 12.777 9.516 3.534 14.505-103.005 27.393-102.636 35.54.36 8.149 32.771 24.271 26.113 43.69-18.956 55.247-418.389 37.69-430.128-8.885-5.46-21.64 20.673-18.518 33.001-29.624z" style="fill:url(#SVGID_2_)"/><path class="st162" d="M413.46 487.722h6.054l9.384-29.098h-11.503z"/><path class="st2" d="m425.896 470.279 2.922 12.206a4.26 4.26 0 0 1-4.038 5.077c-10.77.36-31.94.004-35.848-.031a.581.581 0 0 1-.574-.56c-.175-3.735 2.306-6.109 5.96-7.945l14.088-9.488a.154.154 0 0 1 .087-.022l17.403.763z"/><path class="st4" d="M425.898 470.278c-.158 3.616-17.563 2.855-17.405-.762l-.344-14.294 16.297-.506 1.452 15.562z"/><path class="st5" d="M465.309 353.809h-38.28c-15.57 0-27.767 13.391-26.316 28.894l2.716 78.344c.06 3.289 25.905 1.839 25.846-1.45l4.502-69.273 61.172-27.739-4.088-17.081-25.552 8.305z"/><path class="st2" d="m463.1 470.279 2.921 12.206a4.26 4.26 0 0 1-4.037 5.077c-10.77.36-31.94.004-35.848-.031a.581.581 0 0 1-.575-.56c-.174-3.735 2.306-6.109 5.96-7.945l14.089-9.488a.154.154 0 0 1 .087-.022l17.402.763z"/><path class="st4" d="M463.101 470.278c-.158 3.616-17.562 2.855-17.404-.762l-.345-14.294 16.298-.506 1.451 15.562z"/><path class="st2" d="M488.504 354.763s-47.242.286-56.56 12.13c-12.53 15.929.019 72.236 9.944 93.86.088 3.196 24.732 2.514 24.644-.682l-.74-58.389a4.433 4.433 0 0 1 4.169-4.481l28.434-1.694c15.811-3.497 28.779-10.785 32.63-25.329l3.58-13.518-46.1-1.897z"/><path class="st4" d="M481.148 342.603c-.054-.024-.205-.085-.397-.193.21.096.343.169.397.193z"/><path class="st140" d="M488.977 405.209h9.418v71.866h-9.418z"/><path class="st192" d="M486.31 469.587h14.758v10.882H486.31z"/><path class="st140" d="M531.895 484.45v.012a2.68 2.68 0 0 1-2.673 2.674h-71.065a2.68 2.68 0 0 1-2.674-2.674c0-1.107.448-2.097 1.166-2.826a4.03 4.03 0 0 1 2.827-1.167h68.439a3.976 3.976 0 0 1 3.98 3.982z"/><path class="st192" d="M530.654 491.859c0 2.614-2.108 4.734-4.722 4.734s-4.723-2.12-4.723-4.734a4.722 4.722 0 1 1 9.445 0zM466.17 491.859c0 2.614-2.108 4.734-4.723 4.734s-4.723-2.12-4.723-4.734a4.722 4.722 0 1 1 9.446 0z"/><path class="st4" d="m475.949 310.987-1.305 47.44h-51.427l2.845-8.489 32.96-11.255 6.11-29.824z"/><path class="st6" d="m482.863 319.845-7.107-3.773-12.923-6.849-1.72-.914s8.343-30.222 17.374-35.222c9.343-5.182 4.376 46.758 4.376 46.758z"/><path class="st7" d="M479.304 307.76c-.322 3.076-1.204 6.355-3.548 8.312l-9.238-4.896c2.667-11.494 4.314-24.316 11.83-33.412l-.43 1.914c.397 5.117.784 10.235 1.171 15.363.323 4.226.656 8.494.215 12.72z"/><path class="st5" d="M554.88 280.013c-1.723 3.365-5.08 5.686-8.67 6.855-3.601 1.168-7.452 1.296-11.228 1.174-12.589-.421-24.934-3.545-36.952-7.326-3.843-1.2-7.685-2.484-11.127-4.574-3.432-2.09-6.45-5.076-7.88-8.838-1.43-3.751-1.033-8.34 1.59-11.375 2.634-3.035 8.348-4.258 11.583-1.87a8.772 8.772 0 0 0 5.017 2.455c.461.061 1.439.117 1.572.072 3.288.02 7.76-2.24 10.471-4.154.2-.124.47-.313.646-.449 1.48-1.03 3.505-2.727 4.714-3.87.06-.055.107-.101.155-.147.083-.073.143-.128.192-.184.168-.156.253-.249.253-.249s5.531-1.027 6.319-5.784c.695-4.224-3.696-3.098-4.69-2.79l-.047-.362-.008-.022c0 .01.007.032-.006.052-.069.2-.107.331-.123.371l-.003.02c-.395.535-1.536.53-2.01-.088-.582-.747-.484-1.803-.452-2.752.175-6.702-5.35-13.08-12.004-13.846-2.322-.266-4.672.072-7.002.266-1.62.131-3.275.206-4.855-.046-.709-.104-1.411-.26-2.079-.516-2.207-.816-4.154-2.645-4.486-4.962-.432-2.991 1.832-5.687 4.188-7.575 6.295-5.054 14.486-7.656 22.532-7.187 8.055.48 15.881 4.03 21.53 9.787 1.92 1.951 3.668 4.34 3.778 7.068.116 2.603-.804 5.195-.828 7.831-.028 3.296.395 5.95 2.354 8.724 2.037 2.889 4.815 5.164 7.098 7.864 2.27 2.71 4.087 6.157 3.582 9.652-.458 3.06-2.637 5.988-1.805 8.958.97 3.439 5.227 4.59 7.645 7.215 2.555 2.779 2.759 7.248 1.036 10.602z"/><path class="st6" d="M541.06 304.59v.01c-2.644 24.975-9.676 53.832-9.676 53.832l-43.016-3.064-22.557-1.602 4.171-28.362s.323-6.924 1-15.643a12.723 12.723 0 0 1-.537-.99 12.765 12.765 0 0 1-.785-8.87c.656-2.333 1.957-4.419 2.914-6.634.29-2.365.602-4.644.935-6.73a3.639 3.639 0 0 1 0-.484c.043-.677.323-1.43.452-2.107.462-2.516.913-5.311 2.15-7.58 9.257-16.923 49.93-16.385 61.595-6.397 4.924 4.215 5.042 18.621 3.354 34.62z"/><path class="st7" d="M541.06 304.59v.01c-2.644 24.975-9.676 53.832-9.676 53.832l-43.016-3.064c2.494-1.194 4.977-2.397 7.472-3.59 3.956-1.904 7.945-3.828 11.46-6.463 3.517-2.633 9.814-5.112 11.287-9.24 2.645-7.397.026-15.958-.641-23.785-.892-10.526-1.055-21.764 5.192-30.269 4.666 6.344 10.515 12.483 15.18 18.816.915 1.247 1.84 2.494 2.742 3.752z"/><path class="st22" d="M532.538 332.244a4.93 4.93 0 0 0-4.422 4.988c.229 13.162.321 48.623-22.162 55-25.187 7.142-34.462 3.173-38.592 5.338-1.57.823-3.15 7.675 1.187 9.763s49.292 1.567 60.164-8.068c10.082-8.935 9.572-47.422 9.287-62.211-.056-2.896-2.583-5.115-5.462-4.81z"/><path class="st23" d="M528.71 399.26c-10.87 9.641-55.825 10.164-60.157 8.072-2.035-.978-2.774-2.99-2.808-4.946 9.63 1.49 48.332.33 58.326-8.528 9.949-8.822 9.585-46.456 9.29-61.635a4.941 4.941 0 0 1 4.638 4.833c.284 14.792.796 53.278-9.29 62.203z"/><path class="st5" d="M420.996 353.07h45.21v5.357h-45.21z"/><path class="st2" d="M356.763 358.428h66.481l-9.588-53.424a3.485 3.485 0 0 0-3.43-2.87H347.91a3.485 3.485 0 0 0-3.43 4.102l8.852 49.322a3.485 3.485 0 0 0 3.43 2.87z"/><path class="st4" d="M545.717 302.667s2.193 29.615-.433 46.228c-.887 5.606-5.687 9.75-11.363 9.727l-47.636-.194-.972-11.87 37.43-7.153 1.814-35.742 21.16-.996z"/><path class="st6" d="M539.001 271.462c5.677 2.653 10.886 41.641 10.886 41.641.186 2.413-27.91 4.297-28.096 1.884 0 0-3.18-15.92 0-29.493 1.638-6.997 13.925-15.567 17.21-14.032z"/><path class="st5" d="M381.018 336.816c-2.365 0-4.645-3.108-5.086-6.95-.451-3.842 1.097-6.951 3.462-6.951 2.366 0 4.645 3.109 5.097 6.95.451 3.843-1.108 6.951-3.473 6.951z"/><path class="st4" d="M485.313 346.559s-7.874-10.043-9.887-6.555c-1.566 2.717.295 4.157 1.193 4.663-2.964-1.41-20.068-8.983-18.303 5.091 1.934 15.406 27.97 8.67 27.97 8.67l-.973-11.87zm-8.682-1.886c.211.097.344.169.398.193-.054-.024-.205-.084-.398-.193z"/><path class="st5" d="M485.985 223.568c.178 3.194.665 6.521 2.532 9.118.889 1.235 2.272 2.327 3.783 2.14 1.526-.188 2.595-1.592 3.27-2.975 1.769-3.625 2.061-7.945.797-11.776-.776-2.352-2.195-4.588-4.338-5.83-1.469-.851-5.86-1.81-6.728.42-.397 1.022.351 3.014.44 4.106.129 1.596.154 3.199.244 4.797z"/><path class="st4" d="M515.59 262.736s-7.09 13.532-15.36 11.08c-5.581-1.65-4.823-9.421-4.823-9.421s3.385-1.803 4.018-4.841c.441-2.1.719-4.6.68-7.124l-.02-.775c-.063-1.881 5.836-3.055 9.75-3.638 1.423-.205 3.505-.405 4.593-.368.384.01.79-.332.79-.332s-1.883 10.363.372 15.419z"/><path d="M510.715 249.498c-.092.505-.275 1.015-.552 1.562a7.701 7.701 0 0 1-.54.906c-2.578 3.898-8.127 6.654-10.198 7.588.441-2.1.719-4.6.68-7.124 1.99-1.437 7.014-2.398 10.61-2.932z" style="fill:#f4bebe"/><path class="st4" d="M516.834 238.631c-.11.039-.165.063-.185.06-.391.539-1.532.544-2.011-.07-.589-.742-.5-1.798-.477-2.748.115-6.703-5.466-13.031-12.128-13.738-2.324-.245-4.67.115-7 .33-1.618.145-3.272.234-4.854-.003-2.557 7.24-4.745 24.894 2.143 31.488a8.71 8.71 0 0 0 3.783 2.162c1.261.347 2.7.351 2.829.307 3.537-.15 7.607-2.214 10.433-4.248a8.15 8.15 0 0 0 .365-.248c.093-.072.184-.134.277-.206a47.52 47.52 0 0 0 4.679-3.912l.154-.149c.072-.075.141-.13.19-.186.166-.157.251-.251.251-.251s5.522-1.077 6.266-5.84c.658-4.23-3.724-3.065-4.715-2.748z"/><path class="st4" d="M492.165 232.404c.26-.93 1.011-1.543 1.687-1.348.667.182.998 1.085.729 2.013M492.52 244.906c1.537.58 3.41.83 5.632.746M501.904 233.694c.26-.93 1.022-1.541 1.687-1.348.668.182.998 1.085.74 2.015"/><path class="st4" d="m495.067 233.21-.963-.272c.146-.519.06-1.276-.388-1.403-.459-.127-.923.478-1.065.998l-.965-.265c.373-1.355 1.468-1.928 2.299-1.696.84.236 1.458 1.304 1.082 2.638zM492.347 245.378l.355-.935c1.461.555 3.283.794 5.432.714l.037 1c-1.94.072-4.015-.093-5.824-.779zM504.812 234.5l-.963-.271c.147-.52.062-1.276-.396-1.404-.339-.096-.865.291-1.065 1.001l-.963-.272c.344-1.214 1.358-1.956 2.298-1.692.84.234 1.47 1.291 1.089 2.639z"/><path class="st5" d="M504.33 234.365c-.263.934-1.008 1.534-1.681 1.346-.667-.178-.998-1.085-.743-2.02.262-.927 1.017-1.534 1.682-1.347.673.188 1.006 1.086.743 2.02zM494.585 233.074c-.255.936-1.008 1.534-1.674 1.347-.674-.18-1.006-1.086-.742-2.02.254-.928 1.008-1.535 1.681-1.347.666.187.999 1.085.735 2.02zM492.82 230.22c.208-.258.452-.476.757-.64.695-.388 1.508-.2 1.921.477.15.305.264.62.333.94-.254-.225-.44-.47-.631-.697-.447-.404-.78-.522-1.483-.364-.285.069-.576.198-.897.284zM502.346 231.222c.208-.258.452-.477.756-.641.684-.381 1.503-.21 1.922.478.15.304.263.619.332.939-.253-.225-.44-.47-.63-.697-.449-.404-.782-.522-1.483-.364-.285.069-.576.198-.897.285zM498.098 232.47c-.046 1.114-.297 4.453-.783 5.657-.492 1.192-1.418 1.48-1.7 2.221-.287.818.31 1.703.886 2.417-.363-.303-.71-.634-.982-1.05-.252-.42-.405-.947-.272-1.479.232-.9 1.147-1.169 1.608-2.303.346-.815.682-3.344 1.243-5.463z"/><path class="st3" d="M498.15 245.738c-.238 1.793-1.698 3.078-3.257 2.872-1.55-.205-2.625-1.827-2.388-3.62.005-.032.016-.055.02-.079 1.533.581 3.406.83 5.627.745-.003.025.002.05-.003.082z"/><path class="st7" d="M523.202 281.936c-.032.032-.054.053-.064.085-.01 0-.01-.01-.01-.01l.074-.075z"/><path class="st192" d="M523.626 372.522h9.546v124.46h-9.546zM280.684 372.522h9.546v124.07h-9.546z"/><path class="st35" d="M545.116 360.088v10.773c0 .912-.78 1.661-1.763 1.661H267.277c-.983 0-1.763-.75-1.763-1.66v-10.774c0-.926.78-1.66 1.763-1.66h276.076c.983 0 1.763.734 1.763 1.66z"/><path class="st111" d="M170.285 434.147s27.402-24 27.208-28.956c-.195-4.956-10.592-1.555-11.272-4.859-.68-3.303 15.547-16.616 13.215-19.434-2.332-2.817-8.454 4.859-9.425 1.166s10.899-22.605-2.138-23.806c-16.642-1.533-9.435 20.625-12.146 21.183-3.461.712-8.695-5.13-14.132-.282-9.59 8.55 8.69 54.988 8.69 54.988z"/><path class="st159" d="M171.202 430.375c.402-4.314.983-8.601 1.636-12.875a342.594 342.594 0 0 1 2.203-12.782c1.22-5.83 2.245-11.484 4.438-18.96.033-.102.876-2.948 1.565-4.626l.681-1.48-.452 1.557c-.385 1.437-1.011 4.635-1.032 4.739-.274 1.254-2.918 15.303-3.631 19.072-.837 4.235-1.653 8.475-2.549 12.7-.884 4.23-1.805 8.452-2.859 12.655z"/><path class="st159" d="M177.621 398.7c.675-1.7 1.994-3.55 3.182-4.94 1.192-1.394 2.826-2.98 4.395-3.9-.67 1.699-1.996 3.56-3.182 4.94-1.184 1.38-2.815 2.972-4.395 3.9zM173.517 420.378c1.033-1.538 2.733-3.091 4.198-4.213 1.472-1.128 3.425-2.357 5.168-2.943-1.025 1.53-2.725 3.09-4.198 4.213-1.463 1.116-3.409 2.35-5.168 2.943zM174.171 413.647c-1.747-2.144-3.586-5.328-4.776-7.692-1.185-2.332-2.666-5.731-3.35-8.412 1.721 2.105 3.573 5.29 4.777 7.692 1.202 2.377 2.663 5.733 3.35 8.412z"/><path class="st111" d="M169.34 434.586s1.66-25.093-.854-27.418c-2.514-2.324-5.93 4.412-7.874 3.131s-.522-15.701-3.036-15.938c-2.514-.237-1.755 6.498-4.032 5.17-2.277-1.328-5.715-16.356-12.666-10.578-8.872 7.376 5.463 14.674 4.412 16.27-1.342 2.038-6.749 1.74-7.037 6.761-.507 8.856 31.087 22.602 31.087 22.602z"/><path class="st159" d="M167.946 432.297c-1.91-2.302-3.72-4.678-5.486-7.084-3.832-5.194-9.003-12.787-12.254-18.738-2.21-4.252-1.321-2.855-1.884-4.076.296.484.1.408 2.348 3.797 1.043 1.627 8.32 12.109 12.494 18.528 1.633 2.496 3.245 5.007 4.782 7.573z"/><path class="st159" d="M155.617 413.7c-.5-1.159-.76-2.706-.858-3.964-.1-1.263-.076-2.835.241-4.05.502 1.157.764 2.713.858 3.965.096 1.251.076 2.825-.241 4.05zM164.196 426.287c-.247-1.256-.175-2.843-.007-4.106.167-1.27.52-2.823 1.086-3.96.247 1.248.178 2.839.007 4.106-.17 1.26-.517 2.811-1.086 3.96zM161.23 422.682c-1.9-.194-4.353-.851-6.087-1.424-1.717-.56-4.1-1.496-5.742-2.472 1.868.188 4.326.839 6.087 1.424 1.747.574 4.099 1.499 5.741 2.472z"/><linearGradient id="SVGID_3_" gradientUnits="userSpaceOnUse" x1="168.541" y1="432.416" x2="168.541" y2="434.279"><stop offset="0" style="stop-color:#909eff"/><stop offset="1" style="stop-color:#6977e3"/></linearGradient><path style="fill:url(#SVGID_3_)" d="M153.505 430.26h30.072v5.904h-30.072z"/><linearGradient id="SVGID_4_" gradientUnits="userSpaceOnUse" x1="168.541" y1="439.773" x2="168.541" y2="445.49"><stop offset="0" style="stop-color:#909eff"/><stop offset="1" style="stop-color:#6977e3"/></linearGradient><path style="fill:url(#SVGID_4_)" d="M176.843 454.152H160.24l-3.69-17.988h23.984z"/><path class="st5" d="M112.125 114.205h-8.88c-5.81 0-10.519 4.709-10.519 10.517v198.694c0 5.81 4.71 10.518 10.518 10.518h8.881v-219.73z"/><path class="st2" d="M330.388 124.722v198.694c0 5.81-4.709 10.518-10.518 10.518H109.306c-5.809 0-10.518-4.709-10.518-10.518V124.722c0-5.808 4.71-10.518 10.518-10.518H319.87c5.81 0 10.518 4.71 10.518 10.518z"/><path class="st3" d="M109.306 329.102a5.692 5.692 0 0 1-5.685-5.686V124.723a5.692 5.692 0 0 1 5.685-5.686H319.87a5.692 5.692 0 0 1 5.686 5.686v198.693a5.692 5.692 0 0 1-5.686 5.686H109.306z"/><path class="st35" d="M312.978 135.627v135.726a3.186 3.186 0 0 1-3.185 3.184H179.068a3.18 3.18 0 0 1-3.184-3.184V135.627a3.182 3.182 0 0 1 3.184-3.195h130.725a3.189 3.189 0 0 1 3.185 3.195z"/><path class="st22" d="m217.887 165.29 5.847 7.552v65.28l-5.847 6.887h51.587l9.226-11.37h-38.138v-68.35z"/><path class="st23" d="m278.692 233.641-2.698 3.338h-38.78v-71.682h3.353v68.344z"/><path class="st2" d="M289.311 245.384h-98.987a.375.375 0 0 1 0-.75h98.987a.375.375 0 0 1 0 .75zM223.734 238.497a.375.375 0 0 1-.375-.375v-65.28a.375.375 0 0 1 .75 0v65.28a.375.375 0 0 1-.375.375zM298.537 234.014h-57.975a.375.375 0 0 1-.375-.375v-81.591a.375.375 0 0 1 .75 0v81.216h57.6a.375.375 0 0 1 0 .75z"/><path class="st2" d="M261.621 165.664h-57.535a.375.375 0 0 1 0-.75h57.535a.375.375 0 0 1 0 .75z"/><path class="st2" d="M223.735 173.217a.374.374 0 0 1-.297-.145l-16.099-20.795a.375.375 0 1 1 .593-.459l16.098 20.795a.375.375 0 0 1-.295.604zM207.974 255.296a.375.375 0 0 1-.273-.632l15.76-16.799a.375.375 0 0 1 .547.513l-15.76 16.8a.374.374 0 0 1-.274.118zM265.468 250.32a.374.374 0 0 1-.29-.612l17.236-21.241a.375.375 0 1 1 .582.472l-17.237 21.242a.373.373 0 0 1-.29.139z"/><path class="st166" d="M278.503 173.88c-.393 2.379-.5 4.057 1.507 6.043l-4.758 4.758c-1.986-2.006-3.665-1.9-6.044-1.507l-3.682-12.528 6.727 6.726a1.74 1.74 0 0 0 .203 2.224 1.748 1.748 0 0 0 2.472-2.472 1.744 1.744 0 0 0-2.227-.2l-6.727-6.727 12.53 3.682z"/><path class="st2" d="m281.136 179.947 1.314 1.314a.3.3 0 0 1 0 .423l-5.437 5.437a.3.3 0 0 1-.424 0l-1.313-1.314a.3.3 0 0 1 0-.423l5.436-5.437a.3.3 0 0 1 .424 0z"/><path class="st2" d="m281.9 178.898-7.672 7.672a.611.611 0 0 1-.864-.864l7.672-7.672a.611.611 0 0 1 .864.864zM263.846 165.294a1.943 1.943 0 1 1-3.886.007 1.943 1.943 0 0 1 3.886-.007zM262.748 159.234c0 .47-.38.839-.849.839a.837.837 0 1 1 0-1.677c.47 0 .849.37.849.838zM262.748 171.26c0 .469-.38.838-.849.838a.837.837 0 1 1 0-1.677c.47 0 .849.37.849.838z"/><path class="st2" d="M261.655 159.234h.5v12.128h-.5zM240.515 153.99a1.943 1.943 0 1 1-.007-3.886 1.943 1.943 0 0 1 .007 3.885zM207.588 153.99a1.943 1.943 0 1 1-.007-3.886 1.943 1.943 0 0 1 .007 3.885zM202.26 165.242a1.943 1.943 0 1 1 3.886-.007 1.943 1.943 0 0 1-3.886.007zM188.383 244.962a1.943 1.943 0 1 1 3.885-.007 1.943 1.943 0 0 1-3.885.007zM208.021 252.98a1.943 1.943 0 1 1 .007 3.885 1.943 1.943 0 0 1-.007-3.885zM265.422 252.146a1.943 1.943 0 1 1-.007-3.886 1.943 1.943 0 0 1 .007 3.886zM291.253 245.056a1.943 1.943 0 1 1-3.885.007 1.943 1.943 0 0 1 3.885-.007zM300.479 233.686a1.943 1.943 0 1 1-3.886.007 1.943 1.943 0 0 1 3.886-.007zM282.357 230.78a1.943 1.943 0 1 1 1.011-3.752 1.943 1.943 0 0 1-1.011 3.752z"/><path class="st35" d="M309.373 317.359H171.75a2.248 2.248 0 0 1-2.24-2.241v-29.484c0-1.21.98-2.19 2.19-2.19h137.673a2.241 2.241 0 0 1 2.241 2.24v29.434a2.248 2.248 0 0 1-2.241 2.241z"/><linearGradient id="SVGID_5_" gradientUnits="userSpaceOnUse" x1="285.892" y1="300.401" x2="297.282" y2="300.401"><stop offset="0" style="stop-color:#fadf68"/><stop offset="1" style="stop-color:#eac250"/></linearGradient><path d="M296.253 307.01h-9.37c-.533 0-.99-.458-.99-1.03v-11.16c0-.57.457-1.028.99-1.028h9.37c.571 0 1.029.457 1.029 1.028v11.16c0 .572-.458 1.03-1.029 1.03z" style="fill:url(#SVGID_5_)"/><linearGradient id="SVGID_6_" gradientUnits="userSpaceOnUse" x1="265.482" y1="300.401" x2="276.871" y2="300.401"><stop offset="0" style="stop-color:#3dcfa4"/><stop offset="1" style="stop-color:#30bb93"/></linearGradient><path d="M275.843 307.01h-9.37c-.533 0-.99-.458-.99-1.03v-11.16c0-.57.457-1.028.99-1.028h9.37c.571 0 1.028.457 1.028 1.028v11.16c0 .572-.457 1.03-1.028 1.03z" style="fill:url(#SVGID_6_)"/><linearGradient id="SVGID_7_" gradientUnits="userSpaceOnUse" x1="245.072" y1="300.401" x2="256.461" y2="300.401"><stop offset="0" style="stop-color:#f34b6d"/><stop offset="1" style="stop-color:#e24067"/></linearGradient><path d="M255.433 307.01h-9.37c-.533 0-.99-.458-.99-1.03v-11.16c0-.57.457-1.028.99-1.028h9.37c.57 0 1.028.457 1.028 1.028v11.16c0 .572-.457 1.03-1.028 1.03z" style="fill:url(#SVGID_7_)"/><linearGradient id="SVGID_8_" gradientUnits="userSpaceOnUse" x1="224.662" y1="300.401" x2="236.051" y2="300.401"><stop offset="0" style="stop-color:#909eff"/><stop offset="1" style="stop-color:#6977e3"/></linearGradient><path d="M235.023 307.01h-9.37c-.534 0-.991-.458-.991-1.03v-11.16c0-.57.457-1.028.991-1.028h9.37c.57 0 1.028.457 1.028 1.028v11.16c0 .572-.457 1.03-1.028 1.03z" style="fill:url(#SVGID_8_)"/><linearGradient id="SVGID_9_" gradientUnits="userSpaceOnUse" x1="204.252" y1="300.401" x2="215.641" y2="300.401"><stop offset="0" style="stop-color:#d1deff"/><stop offset="1" style="stop-color:#b2c7ff"/></linearGradient><path d="M214.613 307.01h-9.37c-.534 0-.991-.458-.991-1.03v-11.16c0-.57.457-1.028.991-1.028h9.37c.57 0 1.028.457 1.028 1.028v11.16c0 .572-.457 1.03-1.028 1.03z" style="fill:url(#SVGID_9_)"/><linearGradient id="SVGID_10_" gradientUnits="userSpaceOnUse" x1="183.842" y1="300.401" x2="195.231" y2="300.401"><stop offset="0" style="stop-color:#51d1fe"/><stop offset="1" style="stop-color:#38c0e5"/></linearGradient><path d="M194.202 307.01h-9.37c-.533 0-.99-.458-.99-1.03v-11.16c0-.57.457-1.028.99-1.028h9.37c.571 0 1.029.457 1.029 1.028v11.16c0 .572-.458 1.03-1.029 1.03z" style="fill:url(#SVGID_10_)"/><path d="M160.858 266.035h-41.252a2.8 2.8 0 0 1-2.8-2.799V143.733a2.8 2.8 0 0 1 2.8-2.799h41.252a2.8 2.8 0 0 1 2.8 2.8v119.502a2.8 2.8 0 0 1-2.8 2.8z" style="fill:#d1deff"/><path class="st162" d="M123.153 148.24h14.399v14.418h-14.399zM142.912 148.24h14.399v14.418h-14.399zM123.153 170.385h14.399v14.418h-14.399zM142.912 170.385h14.399v14.418h-14.399zM123.153 192.529h14.399v14.418h-14.399zM142.912 192.529h14.399v14.418h-14.399z"/><path class="st3" d="M136.266 231.388h18.822v18.822h-18.822z"/><path class="st5" d="M155.089 250.71h-18.823a.5.5 0 0 1-.5-.5v-18.822a.5.5 0 0 1 .5-.5h18.823a.5.5 0 0 1 .5.5v18.822a.5.5 0 0 1-.5.5zm-18.323-1h17.823v-17.822h-17.823v17.822z"/><linearGradient id="SVGID_11_" gradientUnits="userSpaceOnUse" x1="138.454" y1="240.799" x2="152.901" y2="240.799"><stop offset="0" style="stop-color:#f34b6d"/><stop offset="1" style="stop-color:#e24067"/></linearGradient><path d="M138.674 247.803a.75.75 0 0 1 0-1.061l12.947-12.947a.75.75 0 1 1 1.06 1.06l-12.946 12.948a.75.75 0 0 1-1.061 0z" style="fill:url(#SVGID_11_)"/><linearGradient id="SVGID_12_" gradientUnits="userSpaceOnUse" x1="125.375" y1="230.836" x2="144.197" y2="230.836"><stop offset="0" style="stop-color:#f34b6d"/><stop offset="1" style="stop-color:#e24067"/></linearGradient><path style="fill:url(#SVGID_12_)" d="M125.375 221.425h18.822v18.822h-18.822z"/><path class="st166" d="m134.334 155.042-3.345 1.057-1.037 3.326-2.896-7.259z"/><path class="st203" d="m153.75 155.042-3.345 1.057-1.037 3.326-2.895-7.259zM133.688 173.616v2.37h-.334l-.76-1.375h-1.535v6.026h1.056v.935h-3.442v-.935h1.033v-6.026h-1.535l-.76 1.375h-.395v-2.37zM146.018 181.687a.738.738 0 0 1 0-1.044l7.143-7.143a.738.738 0 1 1 1.044 1.044l-7.143 7.143a.738.738 0 0 1-1.044 0zM127.068 200.834a3.1 3.1 0 0 1 0-4.38 3.1 3.1 0 0 1 4.38 0 3.1 3.1 0 0 1 0 4.38 3.1 3.1 0 0 1-4.38 0zm1.044-3.335a1.622 1.622 0 0 0 0 2.291c.632.632 1.66.632 2.292 0a1.622 1.622 0 0 0 0-2.291 1.622 1.622 0 0 0-2.292 0z"/><path class="st203" d="m132.592 203.022-2.188-2.188a.738.738 0 1 1 1.044-1.044l2.188 2.188a.738.738 0 1 1-1.044 1.044zM150.112 195.314l1.437 2.913 3.215.467-2.326 2.267.549 3.202-2.875-1.511-2.876 1.511.55-3.202-2.327-2.267 3.215-.467z"/><linearGradient id="SVGID_13_" gradientUnits="userSpaceOnUse" x1="368.668" y1="141.65" x2="368.668" y2="159.647"><stop offset="0" style="stop-color:#fadf68"/><stop offset="1" style="stop-color:#eac250"/></linearGradient><path d="M386.777 137.71a18.098 18.098 0 0 1-5.368 13.681c-2.41 2.389-4.162 5.118-5.015 8.2h-15.445c-.808-3.013-2.434-5.72-4.823-8.006a18.049 18.049 0 0 1-5.584-13.09c0-10.464 8.871-18.858 19.505-18.073 9.1.682 16.344 8.177 16.73 17.288z" style="fill:url(#SVGID_13_)"/><path class="st3" d="M373.595 140.815c-1.265-.02-2.495 1.081-2.495 2.538v1.66h-4.869v-1.66c0-1.57-1.45-2.68-2.598-2.534a2.541 2.541 0 0 0-2.392 2.534 2.54 2.54 0 0 0 2.538 2.538h1.574v14.349a.44.44 0 0 0 .878 0v-14.35h4.869v14.35a.44.44 0 0 0 .878 0v-14.35h1.574a2.54 2.54 0 0 0 2.538-2.537c0-1.463-1.25-2.57-2.495-2.538zm-8.242 4.197h-1.574c-.915 0-1.66-.744-1.66-1.659 0-.9.722-1.636 1.617-1.659a1.661 1.661 0 0 1 1.617 1.659v1.66zm8.2 0h-1.575v-1.659c0-.9.721-1.636 1.617-1.659a1.661 1.661 0 0 1 1.616 1.659c0 .915-.744 1.66-1.659 1.66z"/><path class="st2" d="M377.237 160.478v3.852a.89.89 0 0 1-.886.886h-15.374a.883.883 0 0 1-.88-.886v-3.852c0-.487.393-.886.88-.886h15.374c.487 0 .886.4.886.886zM373.923 165.216v2.115c0 .373-.298.67-.67.67h-9.177a.67.67 0 0 1-.67-.67v-2.115h10.517z"/><linearGradient id="SVGID_14_" gradientUnits="userSpaceOnUse" x1="367.75" y1="113.991" x2="369.282" y2="113.991"><stop offset="0" style="stop-color:#fadf68"/><stop offset="1" style="stop-color:#eac250"/></linearGradient><path d="M368.516 116.6a.766.766 0 0 1-.766-.766v-3.685a.766.766 0 0 1 1.532 0v3.685a.766.766 0 0 1-.766.766z" style="fill:url(#SVGID_14_)"/><linearGradient id="SVGID_15_" gradientUnits="userSpaceOnUse" x1="356.868" y1="116.821" x2="360.243" y2="116.821"><stop offset="0" style="stop-color:#fadf68"/><stop offset="1" style="stop-color:#eac250"/></linearGradient><path d="m358.813 118.8-1.843-3.192a.766.766 0 0 1 1.327-.766l1.843 3.191a.766.766 0 0 1-1.327.766z" style="fill:url(#SVGID_15_)"/><linearGradient id="SVGID_16_" gradientUnits="userSpaceOnUse" x1="348.982" y1="124.251" x2="353.706" y2="124.251"><stop offset="0" style="stop-color:#fadf68"/><stop offset="1" style="stop-color:#eac250"/></linearGradient><path d="m352.557 125.836-3.192-1.843a.766.766 0 1 1 .766-1.326l3.192 1.842a.766.766 0 1 1-.766 1.327z" style="fill:url(#SVGID_16_)"/><linearGradient id="SVGID_17_" gradientUnits="userSpaceOnUse" x1="383.625" y1="123.732" x2="388.349" y2="123.732"><stop offset="0" style="stop-color:#fadf68"/><stop offset="1" style="stop-color:#eac250"/></linearGradient><path d="M383.728 125.036a.766.766 0 0 1 .28-1.046l3.192-1.842a.766.766 0 1 1 .766 1.326l-3.191 1.843a.766.766 0 0 1-1.047-.28z" style="fill:url(#SVGID_17_)"/><linearGradient id="SVGID_18_" gradientUnits="userSpaceOnUse" x1="376.869" y1="116.521" x2="380.244" y2="116.521"><stop offset="0" style="stop-color:#fadf68"/><stop offset="1" style="stop-color:#eac250"/></linearGradient><path d="M377.252 118.78a.766.766 0 0 1-.28-1.046l1.842-3.192a.765.765 0 1 1 1.327.766L378.3 118.5a.766.766 0 0 1-1.047.28z" style="fill:url(#SVGID_18_)"/><linearGradient id="SVGID_19_" gradientUnits="userSpaceOnUse" x1="60.32" y1="180.746" x2="66.437" y2="203.804"><stop offset="0" style="stop-color:#d1deff"/><stop offset="1" style="stop-color:#b2c7ff"/></linearGradient><path d="M76.806 203.856c.073.517-.369.976-.885.885l-4.605-.737a17.938 17.938 0 0 1-8.955 2.384c-9.93 0-17.992-8.045-17.992-17.975s8.062-17.992 17.992-17.992 17.976 8.062 17.976 17.992c0 4.375-1.573 8.398-4.17 11.51l.639 3.933z" style="fill:url(#SVGID_19_)"/><path class="st3" d="M73.89 190.528v-3.469h-2.528a9.167 9.167 0 0 0-1.407-3.408l1.783-1.783-2.467-2.46-1.776 1.776a9.13 9.13 0 0 0-3.408-1.415v-2.512h-3.476v2.512c-1.241.241-2.4.73-3.408 1.415l-1.775-1.776-2.46 2.46 1.783 1.783a9.045 9.045 0 0 0-1.407 3.408h-2.528v3.469h2.52a9.22 9.22 0 0 0 1.407 3.408l-1.776 1.783 2.46 2.452 1.776-1.768a9.039 9.039 0 0 0 3.408 1.407v2.513h3.476v-2.513a9.072 9.072 0 0 0 3.416-1.407l1.768 1.768 2.467-2.452-1.783-1.783a9.095 9.095 0 0 0 1.407-3.408h2.528zm-11.54 2.677a4.411 4.411 0 0 1-4.409-4.408c0-2.435 1.973-4.423 4.408-4.423a4.421 4.421 0 0 1 4.416 4.423 4.413 4.413 0 0 1-4.416 4.408z"/></g></svg>