<svg width="2400" height="2400" viewBox="0 0 2400 2400" fill="none" xmlns="http://www.w3.org/2000/svg">
<path d="M938.965 812.436H957.227C982.292 812.436 1011.12 815.658 1043.7 822.104C1076.29 828.191 1101.89 831.771 1120.51 832.846C1139.13 833.92 1153.81 837.501 1164.55 843.588C1185.32 855.404 1195.7 886.02 1195.7 935.434C1195.7 984.848 1186.39 1009.55 1167.77 1009.55C1161.69 1009.55 1146.65 995.948 1122.66 968.734C1098.67 941.163 1075.75 921.469 1053.91 909.652C1015.23 888.884 971.908 878.5 923.926 878.5C896.354 878.5 868.604 886.02 840.674 901.059C756.527 945.818 714.453 1043.21 714.453 1193.25C714.811 1286.35 736.475 1361.54 779.443 1418.83C822.412 1476.12 882.21 1504.77 958.838 1504.77C1024.37 1504.77 1079.87 1483.11 1125.34 1439.78C1153.63 1412.92 1171.71 1399.5 1179.59 1399.5C1194.63 1399.5 1202.15 1410.42 1202.15 1432.26C1202.15 1443.36 1195.17 1460.73 1181.2 1484.36C1167.24 1507.99 1151.66 1524.64 1134.47 1534.31C1086.13 1561.17 1023.29 1574.59 945.947 1574.59H927.148C883.822 1574.59 839.958 1566.72 795.557 1550.96C705.68 1519.09 642.66 1456.07 606.494 1361.9C587.874 1312.84 578.564 1259.31 578.564 1201.3C578.564 1142.94 587.874 1089.4 606.494 1040.71C644.092 941.879 707.829 874.74 797.705 839.291C843.18 821.387 890.267 812.436 938.965 812.436ZM1661.91 899.984C1632.55 879.932 1599.43 869.906 1562.55 869.906C1526.03 869.906 1496.13 879.574 1472.85 898.91C1449.58 917.888 1437.94 944.743 1437.94 979.477C1437.94 1013.85 1455.31 1044.29 1490.04 1070.79C1510.81 1086.9 1553.24 1108.74 1617.33 1136.31C1681.43 1163.88 1726.01 1189.31 1751.07 1212.58C1799.06 1256.98 1823.05 1303.17 1823.05 1351.16V1370.49C1823.05 1429.93 1799.41 1478.27 1752.15 1515.51C1730.31 1532.7 1703.09 1546.49 1670.51 1556.87C1637.92 1566.9 1605.34 1571.91 1572.75 1571.91H1552.88C1479.12 1571.91 1414.49 1560.81 1358.98 1538.61C1333.92 1528.58 1321.39 1501.19 1321.39 1456.43V1437.63C1321.39 1384.64 1330.52 1358.14 1348.78 1358.14C1361.31 1358.14 1378.32 1375.15 1399.8 1409.16C1421.29 1443.18 1446 1468.78 1473.93 1485.97C1502.21 1503.16 1536.23 1511.75 1575.98 1511.75C1615.72 1511.75 1647.77 1501.37 1672.12 1480.6C1696.47 1459.47 1708.64 1433.51 1708.64 1402.72C1708.64 1360.47 1688.95 1324.84 1649.56 1295.83C1632.73 1283.66 1590.48 1262 1522.8 1230.84C1455.13 1199.33 1408.22 1169.97 1382.08 1142.76C1346.27 1105.52 1328.37 1060.04 1328.37 1006.33C1328.37 952.621 1347.53 908.041 1385.84 872.592C1406.97 852.898 1433.28 837.68 1464.79 826.938C1496.31 815.837 1528.53 810.287 1561.47 810.287H1581.35C1594.95 810.287 1614.29 812.615 1639.36 817.27L1658.15 821.029C1680.35 825.326 1692.35 827.654 1694.14 828.012L1710.79 829.086L1726.9 829.623C1741.94 830.697 1752.51 832.488 1758.59 834.994C1779.72 843.588 1790.28 873.487 1790.28 924.691C1790.28 975.896 1780.26 1001.5 1760.21 1001.5C1750.18 1001.5 1735.14 987.175 1715.09 958.529C1695.04 929.883 1677.31 910.368 1661.91 899.984Z" fill="white"/>
</svg>
