<svg width="1000" height="667" viewBox="0 0 1000 667" fill="none" xmlns="http://www.w3.org/2000/svg">
<g clip-path="url(#clip0_1_2)">
<path d="M26.0104 -18C24.6927 -16.5306 23.3864 -15.052 22.1021 -13.5533C8.27656 2.56804 -4.11511 19.6667 -15.3303 37.4934V41.6387C-4.30574 23.836 7.80781 6.60934 21.2364 -9.92666C23.4661 -12.672 25.7609 -15.36 28.1084 -18H26.0104Z" fill="white"/>
<path d="M542.217 338.041C547.041 393.573 553.967 449.113 574.343 501.391C596.405 557.997 635.94 609.167 686.1 643.632C727.024 671.751 776.445 685.808 825.748 690H887.327C923.125 686.7 958.081 677.205 989.789 659.529C1007.31 649.761 1022.96 637.729 1036.67 623.864V621.132C1021.96 636.153 1005 649.143 985.936 659.769C938.871 686.007 883.143 692.307 830.088 688.725C765.927 684.395 704.683 661.488 656.835 618.071C607.561 573.361 576.019 514.917 560.175 450.764C547.473 399.337 542.877 344.873 540.569 292.029C536.376 196.016 542.615 93.82 488.467 9.3333C482.272 -0.333369 475.425 -9.44404 468.02 -18H464.621C481.356 0.63863 495.427 21.7933 505.975 45.2813C546.863 136.341 533.804 241.175 542.217 338.041Z" fill="white"/>
<path d="M493.929 92.8333C534.82 183.895 521.756 288.727 530.172 385.593C534.996 441.125 541.92 496.664 562.296 548.941C584.111 604.91 623.015 655.552 672.372 690H676.216C665.229 682.741 654.719 674.631 644.792 665.622C595.517 620.912 563.972 562.469 548.129 498.313C535.428 446.888 530.832 392.425 528.525 339.584C524.332 243.569 530.572 141.372 476.423 56.8853C456.845 26.3386 430.815 1.3173 400.893 -18H396.091C438.177 8.71863 472.987 46.1906 493.929 92.8333Z" fill="white"/>
<path d="M69.6145 -18C47.436 -3.51598 27.2432 13.9614 10.0604 33.9974C0.493227 45.1534 -8.3849 56.78 -16.664 68.7893V72.612C-8.61198 60.6507 -0.0208353 48.9733 9.19478 37.6253C27.0052 15.6933 48.6495 -2.88664 72.5735 -18H69.6145Z" fill="white"/>
<path d="M113.947 -18C72.6631 -0.865295 35.0469 25.6814 6.01771 59.5294C-4.05156 71.2694 -13.3527 83.5333 -22 96.2147V100.075C-13.5765 87.4374 -4.55989 75.1147 5.15156 63.1574C34.8197 26.6267 75.124 -0.609296 118.882 -18H113.947Z" fill="white"/>
<path d="M489.888 118.367C530.776 209.427 517.713 314.257 526.128 411.124C530.952 466.655 537.876 522.195 558.252 574.472C575.168 617.873 602.364 658.069 636.739 690H639.5C590.947 645.437 559.793 587.453 544.084 523.845C531.383 472.419 526.788 417.957 524.48 365.113C520.291 269.1 526.527 166.904 472.38 82.4187C442.593 35.94 397.88 2.24396 347.224 -18H341.72C405.94 7.30263 461.051 54.1453 489.888 118.367Z" fill="white"/>
<path d="M539.595 547.852C526.893 496.425 522.3 441.964 519.992 389.12C515.803 293.105 522.04 190.909 467.895 106.423C400.668 1.5267 257.437 -38.3253 141.369 -5.15732C87.724 10.172 37.8927 41.1307 1.52969 83.5334C-6.81719 93.2667 -14.6412 103.359 -22 113.749V117.463C-14.8771 107.135 -7.34427 97.0227 0.664061 87.1614C38.8224 40.172 94.5781 8.5534 152.653 -6.50393C279.781 -39.4666 430.391 19.8574 485.401 142.371C526.289 233.431 513.228 338.264 521.639 435.132C526.461 490.661 533.387 546.203 553.763 598.479C566.673 631.603 585.576 662.859 609.081 690H611.619C576.257 649.441 552.617 600.581 539.595 547.852Z" fill="white"/>
<path d="M532.575 570.48C519.873 519.053 515.276 464.589 512.969 411.747C508.779 315.732 515.019 213.537 460.872 129.052C393.645 24.156 250.415 -15.6946 134.347 17.472C80.7005 32.8027 30.8693 63.7627 -5.49479 106.164C-10.2786 111.741 -14.8807 117.443 -19.3317 123.245V126.516C-15.1473 120.868 -10.8281 115.291 -6.36145 109.791C31.7995 62.8027 87.5547 31.1827 145.631 16.1254C272.757 -16.836 423.368 42.4867 478.379 165C519.268 256.061 506.199 360.889 514.616 457.756C519.441 513.288 526.367 568.829 546.743 621.107C556.197 645.367 568.872 668.624 584.208 690H586.676C561.092 654.393 543.259 613.74 532.575 570.48Z" fill="white"/>
<path d="M527.329 594.637C514.629 543.21 510.032 488.749 507.725 435.905C503.535 339.892 509.775 237.696 455.628 153.211C388.4 48.3146 245.168 8.46396 129.102 41.6306C75.4563 56.96 25.6255 87.92 -10.7365 130.321C-14.1349 134.284 -17.4369 138.313 -20.6661 142.391V145.48C-17.7109 141.601 -14.6932 137.756 -11.6021 133.949C26.5552 86.96 82.3104 55.3426 140.385 40.284C267.512 7.32261 418.124 66.6453 473.135 189.159C514.024 280.219 500.957 385.049 509.372 481.917C514.196 537.447 521.121 592.986 541.497 645.264C547.496 660.655 554.796 675.639 563.241 690H565.688C548.36 660.572 535.667 628.397 527.329 594.637Z" fill="white"/>
<path d="M520.305 617.268C507.604 565.841 503.009 511.379 500.701 458.535C496.509 362.523 502.749 260.327 448.603 175.841C381.376 70.9454 238.145 31.0921 122.079 64.2601C68.4323 79.5894 18.6011 110.551 -17.7625 152.953C-17.8417 153.045 -17.9188 153.14 -17.9979 153.232V155.824C20.1437 109.253 75.6016 77.8894 133.363 62.9134C260.489 29.9507 411.099 89.276 466.109 211.788C506.999 302.848 493.937 407.681 502.349 504.547C507.172 560.077 514.097 615.617 534.472 667.895C537.385 675.367 540.611 682.743 544.117 690H546.509C535.253 666.971 526.553 642.567 520.305 617.268Z" fill="white"/>
<path d="M514.485 641.273C501.784 589.848 497.184 535.385 494.879 482.541C490.691 386.528 496.928 284.331 442.783 199.844C375.556 94.9494 232.325 55.0974 116.258 88.264C64.6697 103.007 16.6167 132.208 -19.3317 172.133V174.52C18.6016 130.872 72.0052 101.317 127.542 86.9174C254.668 53.956 405.279 113.28 460.289 235.792C501.18 326.857 488.107 431.685 496.527 528.553C501.293 583.414 508.121 638.279 527.931 690H530.072C523.795 674.236 518.604 657.951 514.485 641.273Z" fill="white"/>
<path d="M510.796 666.195C498.093 614.767 493.499 560.305 491.192 507.461C487 411.448 493.239 309.251 439.095 224.765C371.869 119.867 228.639 80.0187 112.57 113.185C61.4677 127.789 13.8355 156.585 -22 195.936V198.275C15.8688 155.267 68.814 126.112 123.854 111.84C250.983 78.8773 401.591 138.197 456.601 260.713C497.488 351.773 484.424 456.605 492.839 553.472C496.845 599.6 502.311 645.734 515.724 690H517.487C515.008 682.164 512.779 674.224 510.796 666.195Z" fill="white"/>
<path d="M486.704 531.467C482.513 435.453 488.751 333.256 434.605 248.771C367.379 143.873 224.148 104.024 108.081 137.193C59.0849 151.195 13.276 178.241 -22 215.129V217.316C15.5027 177.021 66.4688 149.561 119.365 135.845C246.493 102.883 397.101 162.205 452.112 284.719C493 375.779 479.94 480.612 488.352 577.477C491.639 615.327 495.907 653.179 504.74 690H506.259C493.596 638.632 489.009 584.243 486.704 531.467Z" fill="white"/>
<path d="M478.924 554.248C474.731 458.235 480.969 356.039 426.825 271.553C359.6 166.656 216.368 126.805 100.302 159.973C55.4235 172.797 13.2208 196.567 -20.6661 228.817V230.807C15.7708 195.559 62.8588 171.261 111.585 158.627C238.713 125.664 389.323 184.987 444.332 307.5C485.217 398.56 472.157 503.393 480.572 600.259C483.185 630.344 486.42 660.429 492.072 690H493.431C484.539 645.492 480.889 599.285 478.924 554.248Z" fill="white"/>
<path d="M471.948 577.948C467.756 481.935 473.995 379.737 419.849 295.251C352.623 190.355 209.391 150.507 93.3245 183.673C50.9036 195.795 10.8766 217.697 -22 247.296V249.22C13.5907 216.824 58.3588 194.317 104.608 182.327C231.735 149.365 382.345 208.685 437.356 331.197C478.244 422.259 465.183 527.093 473.596 623.96C475.513 646.04 477.768 668.122 481.063 690H482.213C476.328 652.924 473.568 615.039 471.948 577.948Z" fill="white"/>
<path d="M466.88 601.798C462.691 505.785 468.927 403.588 414.781 319.104C347.556 214.207 204.325 174.357 88.2579 207.524C47.9964 219.029 9.88333 239.339 -22 266.681V268.576C12.7266 238.585 55.4615 217.607 99.5417 206.177C226.669 173.215 377.277 232.537 432.289 355.051C473.177 446.112 460.113 550.943 468.527 647.809C469.749 661.891 471.109 675.972 472.788 690H473.779C470.133 660.628 468.153 630.967 466.88 601.798Z" fill="white"/>
<path d="M462.389 625.805C458.2 529.791 464.437 427.593 410.292 343.108C343.065 238.211 199.836 198.36 83.7677 231.527C45.3781 242.497 8.9453 261.473 -22 286.917V288.784C11.888 260.813 52.8527 241.121 95.0511 230.18C222.18 197.219 372.788 256.543 427.799 379.056C468.688 470.12 455.619 574.948 464.036 671.816C464.563 677.879 465.117 683.941 465.708 690H466.671C464.627 668.541 463.316 647.043 462.389 625.805Z" fill="white"/>
<path d="M457.324 649.653C453.133 553.64 459.371 451.445 405.225 366.961C338 262.064 194.769 222.213 78.7021 255.381C42.386 265.759 7.825 283.307 -22 306.711V308.553C10.8667 282.743 49.8703 264.436 89.9849 254.035C217.113 221.072 367.723 280.395 422.732 402.908C462.825 492.196 451.048 594.722 458.505 690H459.611C458.639 676.497 457.907 663.024 457.324 649.653Z" fill="white"/>
<path d="M452.26 673.507C448.067 577.493 454.305 475.299 400.161 390.812C332.935 285.916 189.704 246.065 73.6375 279.232C39.3584 289.028 6.64479 305.215 -22 326.681V328.519C9.77344 304.747 46.8484 287.757 84.9203 277.885C212.048 244.923 362.657 304.248 417.667 426.76C454.432 508.639 447.584 601.655 451.944 690H453.067C452.771 684.489 452.5 678.986 452.26 673.507Z" fill="white"/>
<path d="M396.251 414.969C329.025 310.072 185.795 270.223 69.7281 303.389C36.9984 312.743 5.69636 327.921 -22 347.959V349.809C8.8875 327.537 44.488 311.513 81.0109 302.043C208.139 269.081 358.748 328.403 413.757 450.916C447.187 525.365 444.553 609.019 447.079 690H448.036C444.448 596.233 448.957 497.209 396.251 414.969Z" fill="white"/>
<path d="M390.608 438.668C323.381 333.769 180.152 293.92 64.0849 327.088C33.5604 335.809 4.27604 349.599 -22 367.671V369.54C7.54584 349.323 41.0511 334.639 75.3688 325.741C202.497 292.779 353.104 352.101 408.113 474.615C438.291 541.821 439.081 616.529 440.807 690H441.623C439.157 603.434 438.891 514.009 390.608 438.668Z" fill="white"/>
<path d="M382.025 460.531C314.8 355.635 171.569 315.787 55.5021 348.953C29.7672 356.307 4.91511 367.267 -17.9979 381.353V383.279C8.32604 367.212 37.2531 355.264 66.786 347.607C193.913 314.644 344.521 373.965 399.532 496.479C426.72 557.028 430.052 623.664 431.707 690H432.435C430.192 610.375 426.253 529.544 382.025 460.531Z" fill="white"/>
<path d="M374.869 484.537C307.643 379.641 164.412 339.792 48.3453 372.959C24.2817 379.833 0.99062 389.864 -20.6661 402.652V404.6C4.44218 389.883 31.7651 378.836 59.6281 371.612C186.756 338.649 337.365 397.972 392.377 520.484C416.285 573.729 421.747 631.684 423.843 690H424.515C421.84 618.269 414.659 546.621 374.869 484.537Z" fill="white"/>
<path d="M370.203 508.845C302.976 403.948 159.747 364.1 43.6792 397.268C20.8453 403.793 -1.29219 413.16 -22 425.025V426.985C2.18541 413.228 28.3265 402.828 54.9625 395.921C182.091 362.96 332.699 422.279 387.709 544.793C408.292 590.631 415.2 639.957 418.061 690H418.724C415.131 626.502 405.493 563.912 370.203 508.845Z" fill="white"/>
<path d="M364.559 532.548C297.333 427.651 154.101 387.8 38.0339 420.967C17.2625 426.903 -2.93229 435.192 -22 445.572V447.555C0.587499 435.341 24.7417 425.992 49.3177 419.62C176.444 386.657 327.055 445.981 382.065 568.495C399.388 607.076 407.027 648.128 410.719 690H411.415C406.681 634.709 395.448 580.747 364.559 532.548Z" fill="white"/>
<path d="M356.028 555.483C288.803 450.585 145.571 410.736 29.5036 443.903C11.8036 448.961 -5.47656 455.731 -22 464.041V466.044C-1.90469 455.985 19.2807 448.133 40.7875 442.556C167.916 409.593 318.525 468.917 373.535 591.429C387.683 622.937 395.369 656.095 399.723 690H400.501C394.652 642.776 382.631 596.991 356.028 555.483Z" fill="white"/>
<path d="M350.96 579.336C283.733 474.44 140.504 434.588 24.4369 467.755C8.53697 472.299 -7.02188 478.225 -22 485.405V487.417C-3.42396 478.54 16.0136 471.519 35.7208 466.409C162.848 433.448 313.456 492.772 368.467 615.284C379.277 639.361 386.315 664.4 390.977 690H391.891C385.095 651.245 373.057 613.815 350.96 579.336Z" fill="white"/>
<path d="M349.365 604.107C282.139 499.213 138.907 459.361 22.8412 492.527C7.50625 496.908 -7.51407 502.573 -22 509.412V511.439C-3.90677 502.917 14.9807 496.143 34.1251 491.18C161.251 458.219 311.861 517.544 366.873 640.053C374.171 656.305 379.741 672.996 384.031 690H385.14C377.861 660.076 366.717 631.181 349.365 604.107Z" fill="white"/>
<path d="M344.3 627.955C277.073 523.056 133.845 483.205 17.7765 516.373C4.22188 520.248 -9.08803 525.121 -22 530.923V532.957C-5.45833 525.525 11.6948 519.529 29.0599 515.028C156.191 482.064 306.796 541.388 361.805 663.903C365.66 672.485 369.033 681.191 371.992 690H373.34C366.371 668.549 356.996 647.765 344.3 627.955Z" fill="white"/>
<path d="M335.764 650.891C268.537 545.993 125.307 506.143 9.23959 539.309C-1.34844 542.336 -11.7839 545.979 -22 550.191V552.196C-8.12292 546.448 6.12812 541.695 20.5235 537.964C147.651 505.001 298.26 564.325 353.271 686.839C353.743 687.889 354.2 688.945 354.657 690H356.272C350.631 676.62 343.88 663.555 335.764 650.891Z" fill="white"/>
<path d="M331.277 674.895C264.051 569.997 120.818 530.148 4.75156 563.315C-4.29115 565.898 -13.2208 568.937 -22 572.389V574.383C-9.54479 569.444 3.1875 565.3 16.0355 561.969C135.724 530.936 276.217 581.71 338.157 690H340.22C337.436 684.908 334.465 679.869 331.277 674.895Z" fill="white"/>
<path d="M-3.78385 586.251C-9.91145 588.002 -15.9864 589.967 -22 592.119V594.084C-12.2844 590.548 -2.42864 587.477 7.49948 584.904C118.391 556.152 247.143 597.627 314.733 690H317.476C248.264 590.975 109.344 553.922 -3.78385 586.251Z" fill="white"/>
<path d="M-8.84948 610.1C-13.2609 611.361 -17.6453 612.733 -22 614.203V616.127C-13.9303 613.341 -5.77136 610.881 2.43437 608.753C103.273 582.609 218.879 614.537 289.836 690H293.373C219.837 609.037 94.6896 580.515 -8.84948 610.1Z" fill="white"/>
<path d="M-11.6047 634.565C-15.0891 635.561 -18.5511 636.645 -22 637.772V639.668C-14.8287 637.264 -7.59531 635.104 -0.320835 633.217C88.8328 610.101 189.529 632.377 260.709 690H264.992C190.219 628.002 80.7145 608.184 -11.6047 634.565Z" fill="white"/>
<path d="M-16.0917 658.572C-18.0672 659.137 -20.0355 659.729 -22 660.336V662.203C-16.3016 660.385 -10.5677 658.719 -4.80781 657.226C70.6568 637.657 154.397 650.612 221.503 690H226.412C154.731 647.293 63.014 635.967 -16.0917 658.572Z" fill="white"/>
<path d="M-22 680.475V682.216C-19.3131 681.444 -16.6197 680.707 -13.9213 680.008C44.2948 664.914 107.43 669.184 164.059 690H169.651C108.604 667.208 39.6407 663.644 -22 680.475Z" fill="white"/>
<path d="M1030 4.41872C1018.35 4.67605 1006.71 4.37073 995.195 3.59339C962.292 1.37073 930.164 -5.7493 900.209 -18H894.472C931.535 -2.36397 972.316 4.92135 1012.2 6.08135C1018.14 6.25335 1024.07 6.26537 1030 6.13337V4.41872Z" fill="white"/>
<path d="M1030 28.1281C1016.66 28.6134 1003.31 28.336 990.125 27.4454C939.78 24.0467 891.239 9.20539 849.549 -17.9999H845.64C845.807 -17.8853 845.972 -17.7653 846.139 -17.6506C892.977 14.5334 950.951 28.3001 1007.13 29.9334C1014.76 30.1547 1022.39 30.1307 1030 29.8441V28.1281Z" fill="white"/>
<path d="M1030 52.1147C1015.36 52.812 1000.69 52.576 986.217 51.6C922.584 47.3027 861.828 24.724 814.156 -18H811.348C821.103 -9.13328 831.417 -0.925283 842.228 6.50272C889.069 38.6867 947.041 52.4534 1003.22 54.0881C1012.16 54.3481 1021.09 54.2667 1030 53.8267V52.1147Z" fill="white"/>
<path d="M1030 75.5C1013.49 76.564 996.907 76.4027 980.573 75.3C916.411 70.968 855.167 48.0613 807.317 4.64401C799.381 -2.55733 791.912 -10.12 784.887 -18H782.341C798.469 0.226662 816.687 16.5333 836.584 30.2053C883.424 62.388 941.397 76.1547 997.58 77.788C1008.4 78.1027 1019.23 77.9253 1030 77.2027V75.5Z" fill="white"/>
<path d="M1030 96.3053C1009.37 98.4493 988.479 98.5493 967.989 97.1653C903.828 92.8333 842.581 69.9253 794.733 26.508C779.709 12.8747 766.343 -2.04134 754.557 -18H752.092C772.101 9.15066 796.441 33.1346 824 52.068C870.84 84.252 928.813 98.0186 984.996 99.6533C1000.05 100.091 1015.11 99.5706 1030 97.964V96.3053Z" fill="white"/>
<path d="M1030 119.809C1007.91 122.432 985.477 122.652 963.5 121.169C899.34 116.836 838.092 93.9307 790.247 50.5134C767.915 30.2494 749.237 7.15868 734 -18H731.544C753.96 19.044 784.081 51.7307 819.512 76.0747C866.353 108.256 924.325 122.024 980.507 123.657C997.072 124.139 1013.65 123.461 1030 121.448V119.809Z" fill="white"/>
<path d="M1030 143.715C1006.84 146.725 983.251 147.04 960.169 145.481C896.009 141.148 834.764 118.241 786.917 74.824C757.567 48.1907 734.508 16.6827 717.309 -18H714.924C737.995 29.004 773.177 70.8374 816.183 100.385C863.023 132.568 920.995 146.335 977.176 147.969C994.865 148.484 1012.57 147.676 1030 145.332V143.715Z" fill="white"/>
<path d="M1030 166.623C1005.04 170.36 979.485 170.863 954.525 169.179C890.365 164.847 829.115 141.944 781.269 98.5254C745.363 65.9427 718.881 26.0627 701.02 -18H698.839C720.913 38.5427 760.42 89.6547 810.535 124.085C857.376 156.267 915.349 170.032 971.531 171.667C991.135 172.236 1010.75 171.185 1030 168.212V166.623Z" fill="white"/>
<path d="M1030 188.143C1002.35 193.145 973.805 193.992 945.993 192.115C881.831 187.781 820.588 164.875 772.74 121.457C730.696 83.3094 701.572 35.16 684.084 -18H682.253C684.664 -10.3466 687.311 -2.74796 690.245 4.78004C712.308 61.3854 751.845 112.555 802.005 147.019C848.845 179.201 906.817 192.969 962.999 194.603C985.507 195.256 1008.03 193.775 1030 189.696V188.143Z" fill="white"/>
<path d="M1030 211.032C1000.78 216.888 970.443 217.961 940.925 215.968C876.764 211.636 815.525 188.727 767.676 145.311C719.427 101.532 688.187 44.5827 672.031 -18H670.473C674.416 -2.23198 679.219 13.34 685.179 28.6307C707.243 85.2374 746.781 136.407 796.943 170.872C843.781 203.056 901.751 216.823 957.932 218.456C982.175 219.161 1006.44 217.389 1030 212.563V211.032Z" fill="white"/>
<path d="M1030 235.479C1000.29 241.619 969.384 242.767 939.331 240.737C875.171 236.405 813.925 213.499 766.079 170.081C716.805 125.371 685.259 66.928 669.415 2.77335C667.716 -4.09865 666.175 -11.0306 664.752 -18H663.384C668.124 6.25337 674.521 30.1507 683.584 53.4C705.645 110.007 745.184 161.177 795.345 195.643C842.185 227.825 900.156 241.592 956.337 243.225C981.127 243.945 1005.94 242.085 1030 237.008V235.479Z" fill="white"/>
<path d="M1030 258.231C998.751 265.329 966.029 266.732 934.265 264.588C870.104 260.256 808.86 237.351 761.012 193.935C711.739 149.223 680.193 90.7814 664.348 26.6254C660.727 11.9614 657.783 -2.95197 655.345 -18H654.171C659.159 14.4387 666.496 46.4134 678.516 77.2521C700.58 133.859 740.117 185.031 790.279 219.495C837.119 251.676 895.091 265.443 951.272 267.076C977.805 267.848 1004.37 265.659 1030 259.736V258.231Z" fill="white"/>
<path d="M1030 279.076C996.211 287.98 960.401 289.864 925.732 287.523C861.569 283.191 800.324 260.284 752.476 216.867C703.203 172.156 671.659 113.715 655.813 49.5614C650.361 27.4774 646.408 4.83336 643.481 -18H642.48C647.436 22.284 655.139 62.1027 669.981 100.188C692.045 156.793 731.583 207.963 781.743 242.427C828.584 274.611 886.556 288.377 942.739 290.011C972.228 290.868 1001.75 288.073 1030 280.553V279.076Z" fill="white"/>
<path d="M1030 301.848C994.904 311.805 957.452 313.972 921.243 311.528C857.081 307.195 795.835 284.288 747.987 240.872C698.713 196.161 667.169 137.72 651.325 73.5654C643.965 43.7614 639.337 12.9374 636.289 -18H635.333C640.169 30.4334 647.705 78.556 665.493 124.192C687.556 180.797 727.092 231.969 777.253 266.432C824.093 298.615 882.067 312.381 938.248 314.016C969.304 314.919 1000.4 311.769 1030 303.317V301.848Z" fill="white"/>
<path d="M1030 322.184C992.483 334.353 951.868 337.107 912.705 334.463C848.544 330.131 787.301 307.224 739.453 263.807C690.179 219.096 658.635 160.655 642.791 96.5C633.612 59.3334 628.677 20.5814 625.769 -18H624.687C624.736 -17.4066 624.784 -16.8133 624.835 -16.2213C629.657 39.3094 636.583 94.8493 656.959 147.127C679.021 203.732 718.559 254.903 768.719 289.368C815.557 321.551 873.529 335.316 929.711 336.949C963.767 337.94 997.869 334.06 1030 323.656V322.184Z" fill="white"/>
<path d="M1030 344.331C991.092 357.948 948.575 361.08 907.641 358.315C843.48 353.981 782.237 331.073 734.389 287.657C685.115 242.947 653.571 184.505 637.725 120.352C626.651 75.5147 621.737 28.3693 619.133 -18H618C618.459 -9.40532 619.028 -0.854649 619.765 7.63335C624.591 63.1627 631.517 118.703 651.893 170.979C673.957 227.584 713.495 278.752 763.655 313.217C810.495 345.401 868.467 359.169 924.648 360.804C960.5 361.847 996.401 357.484 1030 345.803V344.331Z" fill="white"/>
<path d="M1030 368.177C990.505 382.451 947.161 385.747 905.465 382.931C841.303 378.597 780.063 355.689 732.212 312.272C682.939 267.561 651.392 209.121 635.547 144.967C622.847 93.54 618.251 39.0773 615.944 -13.7667C615.883 -15.176 615.824 -16.5867 615.767 -18H614.784C615.344 -1.09202 616.153 15.6933 617.591 32.2453C622.415 87.776 629.34 143.316 649.716 195.593C671.78 252.199 711.319 303.367 761.479 337.833C808.317 370.017 866.291 383.785 922.472 385.417C959.099 386.484 995.777 381.907 1030 369.647V368.177Z" fill="white"/>
<path d="M1030 390.888C989.468 406.388 944.631 409.997 901.555 407.088C837.392 402.756 776.152 379.849 728.304 336.432C679.028 291.723 647.483 233.28 631.639 169.125C618.939 117.697 614.344 63.2347 612.036 10.3907C611.625 0.980064 611.315 -8.49196 611.037 -18H610.208C610.807 7.07337 611.564 31.9907 613.684 56.4013C618.507 111.933 625.431 167.475 645.807 219.752C667.871 276.359 707.409 327.528 757.571 361.993C804.409 394.177 862.38 407.943 918.56 409.577C956.585 410.683 994.668 405.705 1030 392.364V390.888Z" fill="white"/>
<path d="M1030 409.125C986.856 428.195 938.035 432.721 891.285 429.565C827.123 425.232 765.881 402.323 718.031 358.907C668.757 314.197 637.212 255.756 621.368 191.601C608.667 140.175 604.071 85.7134 601.763 32.8694C601.028 16.06 600.615 -0.939964 600.139 -18H599.407C600.203 14.6387 600.656 47.1853 603.411 78.8813C608.236 134.412 615.16 189.952 635.536 242.228C657.599 298.835 697.139 350.003 747.299 384.468C794.139 416.651 852.111 430.419 908.292 432.052C950.031 433.267 991.84 427.163 1030 410.699V409.125Z" fill="white"/>
<path d="M1030 430.659C985.636 451.679 934.807 456.696 886.217 453.417C822.057 449.084 760.809 426.18 712.964 382.761C663.691 338.051 632.147 279.609 616.304 215.455C603.603 164.028 599.008 109.565 596.7 56.7214C595.625 32.0867 595.235 7.04538 594.336 -18H593.663C595.056 22.5867 594.924 63.3187 598.348 102.732C603.171 158.264 610.095 213.805 630.472 266.083C652.532 322.687 692.069 373.86 742.229 408.323C789.071 440.505 847.041 454.271 903.224 455.905C946.819 457.172 990.488 450.456 1030 432.295V430.659Z" fill="white"/>
<path d="M1030 452.472C984.595 475.336 931.967 480.817 881.729 477.424C817.567 473.092 756.323 450.187 708.473 406.768C659.199 362.059 627.655 303.616 611.812 239.463C599.112 188.035 594.52 133.572 592.211 80.728C590.792 48.2187 590.565 15 588.789 -18H588.131C590.757 30.4614 589.763 79.5467 593.86 126.739C598.68 182.271 605.604 237.812 625.979 290.089C648.041 346.695 687.58 397.864 737.74 432.329C784.581 464.513 842.553 478.28 898.735 479.913C943.988 481.229 989.32 473.939 1030 454.176V452.472Z" fill="white"/>
<path d="M1030 474.149C983.596 498.972 929.141 504.935 877.241 501.429C813.084 497.095 751.831 474.193 703.985 430.776C654.712 386.065 623.167 327.623 607.323 263.469C594.621 212.043 590.028 157.58 587.72 104.737C585.956 64.3267 586.039 22.8201 582.689 -17.9999H581.995C586.735 38.1641 584.591 95.7414 589.367 150.748C594.191 206.279 601.115 261.819 621.491 314.096C643.553 370.7 683.089 421.875 733.252 456.336C780.093 488.516 838.065 502.283 894.248 503.917C941.172 505.284 988.181 497.396 1030 475.94V474.149Z" fill="white"/>
<path d="M1030 495.201C1029.34 495.579 1028.69 495.963 1028.02 496.333C980.956 522.568 925.229 528.863 872.175 525.279C808.023 520.943 746.764 498.044 698.92 454.632C649.645 409.921 618.1 351.479 602.256 287.325C589.555 235.899 584.957 181.436 582.651 128.592C580.543 80.2787 581.073 30.4 575.223 -18H574.448C582.415 45.5974 578.84 111.775 584.299 174.603C589.123 230.135 596.048 285.675 616.424 337.952C638.487 394.556 678.024 445.732 728.188 480.188C775.029 512.363 833 526.131 889.181 527.767C938.011 529.191 986.931 520.591 1030 497.112V495.201Z" fill="white"/>
<path d="M1030 515.579C1027.49 517.103 1024.96 518.593 1022.38 520.032C975.315 546.265 919.584 552.557 866.532 548.972C802.373 544.639 741.127 521.737 693.277 478.324C644.003 433.617 612.457 375.177 596.613 311.024C583.912 259.597 579.317 205.135 577.011 152.291C574.555 96.048 575.672 37.6841 566.14 -17.9999H565.237C577.807 52.7134 572.521 127.628 578.657 198.303C583.479 253.833 590.405 309.373 610.781 361.649C632.845 418.253 672.383 469.421 722.545 503.881C769.387 536.06 827.359 549.825 883.537 551.463C933.073 552.905 982.712 544.049 1026.23 519.792C1027.5 519.085 1028.75 518.364 1030 517.636V515.579Z" fill="white"/>
<path d="M1026 539.367C1022.98 541.239 1019.91 543.051 1016.78 544.796C969.716 571.028 913.985 577.321 860.935 573.737C796.768 569.403 735.533 546.491 687.677 503.08C638.4 458.379 606.856 399.941 591.012 335.792C578.311 284.365 573.717 229.904 571.409 177.061C568.584 112.413 570.488 44.9614 555.507 -17.9999H554.411C573.609 59.7961 566.196 144.084 573.057 223.072C577.88 278.601 584.804 334.14 605.18 386.416C627.245 443.021 666.785 494.176 716.945 528.639C763.787 560.821 821.757 574.589 877.94 576.225C927.475 577.669 977.115 568.812 1020.63 544.556C1022.44 543.547 1024.23 542.504 1026 541.447V539.367Z" fill="white"/>
<path d="M1024.66 559.971C1020.04 563.009 1015.28 565.905 1010.38 568.639C963.315 594.869 907.585 601.169 854.532 597.586C790.367 593.253 729.132 570.347 681.277 526.932C632.001 482.229 600.456 423.793 584.611 359.643C571.911 308.217 567.313 253.755 565.007 200.913C561.824 128.019 564.645 51.5653 542.5 -18H541.171C568.887 66.2067 559.084 159.787 566.653 246.924C571.477 302.453 578.403 357.992 598.78 410.267C620.844 466.871 660.385 518.028 710.544 552.492C757.384 584.675 815.357 598.44 871.539 600.076C921.076 601.516 970.713 592.655 1014.23 568.398C1017.79 566.417 1021.26 564.333 1024.66 562.168V559.971Z" fill="white"/>
<path d="M1031.33 570.541C1022.24 577.651 1012.51 584.119 1002.16 589.888C955.092 616.12 899.365 622.421 846.311 618.839C782.145 614.505 720.908 591.596 673.055 548.181C623.781 503.476 592.233 445.041 576.387 380.892C563.685 329.469 559.088 275.007 556.781 222.165C553.271 141.769 557.067 57.0387 526.607 -17.9999H525.031C562.452 71.5094 550.215 173.636 558.428 268.177C563.252 323.705 570.179 379.243 590.556 431.515C612.623 488.117 652.164 539.277 702.321 573.741C749.163 605.924 807.136 619.693 863.317 621.327C912.856 622.768 962.491 613.904 1006.01 589.646C1014.95 584.668 1023.38 579.092 1031.33 572.993V570.541Z" fill="white"/>
<path d="M-22 25.4067C-14.0317 10.5813 -5.44636 -3.91196 3.9026 -18H1.3C-7.06979 -5.39063 -14.7979 7.62401 -22 20.9373V25.4067Z" fill="white"/>
<path d="M1030 590.937C1019.65 599.48 1008.41 607.161 996.336 613.893C949.269 640.125 893.544 646.427 840.489 642.845C776.328 638.514 715.083 615.608 667.235 572.192C617.963 527.483 586.415 469.047 570.568 404.896C557.864 353.472 553.268 299.012 550.963 246.171C547.072 157.072 552.155 62.6534 509.64 -18H507.672C510.787 -12.3426 513.695 -6.53732 516.371 -0.577317C557.257 90.4827 544.195 195.316 552.609 292.181C557.433 347.709 564.36 403.247 584.737 455.519C606.803 512.121 646.341 563.291 696.5 597.752C743.341 629.933 801.313 643.698 857.495 645.333C907.032 646.773 956.669 637.909 1000.19 613.652C1010.82 607.727 1020.76 600.963 1030 593.467V590.937Z" fill="white"/>
<path d="M1030 611.789C1018.58 621.667 1006.04 630.461 992.424 638.049C945.359 664.283 889.633 670.584 836.577 667.002C772.417 662.669 711.171 639.764 663.324 596.348C614.053 551.639 582.504 493.203 566.656 429.053C553.953 377.629 549.359 323.168 547.051 270.328C542.86 174.315 549.096 72.1173 494.952 -12.368C493.733 -14.2693 492.483 -16.1414 491.216 -18H488.529C497.757 -5.09336 505.811 8.77598 512.459 23.58C553.347 114.64 540.284 219.472 548.697 316.339C553.523 371.865 560.449 427.403 580.827 479.675C602.892 536.276 642.431 587.447 692.589 621.908C739.429 654.089 797.403 667.856 853.584 669.489C903.121 670.931 952.757 662.067 996.279 637.809C1008.43 631.039 1019.67 623.181 1030 614.377V611.789Z" fill="white"/>
<path d="M-22 42.436C-10.387 21.5387 2.51771 1.33337 17.0828 -18H14.6224C1.00833 -0.235965 -11.0943 18.5307 -22 37.9907V42.436Z" fill="white"/>
<path d="M48.3645 -18C37.4271 -8.69997 27.2079 1.4187 17.8797 12.2974C3.03855 29.604 -10.1453 48.0414 -22 67.2907V71.48C-10.3281 52.256 2.58541 33.6934 17.0136 15.9241C27.0729 3.53739 38.3645 -7.77063 50.5891 -18H48.3645Z" fill="white"/>
<path d="M976.783 690C979.737 688.519 982.667 686.975 985.568 685.359C1002.06 676.168 1016.88 664.968 1030 652.127V649.432C1015.86 663.412 999.725 675.559 981.713 685.597C978.956 687.136 976.165 688.597 973.349 690H976.783Z" fill="white"/>
<path d="M501.751 71.1306C542.639 162.193 529.569 267.023 537.987 363.889C542.812 419.416 549.741 474.952 570.117 527.224C592.183 583.825 631.719 634.995 681.877 669.457C693.431 677.396 705.665 684.208 718.379 690H723.909C698.089 678.615 674.008 663.312 652.611 643.896C603.341 599.188 571.795 540.752 555.948 476.603C543.245 425.179 538.645 370.719 536.34 317.877C532.149 221.864 538.388 119.669 484.243 35.184C471.328 15.0333 455.601 -2.7067 437.808 -18H433.611C462.313 6.0573 485.971 35.9893 501.751 71.1306Z" fill="white"/>
</g>
<defs>
<clipPath id="clip0_1_2">
<rect width="1000" height="666.667" fill="white"/>
</clipPath>
</defs>
</svg>
