<?xml version="1.0" encoding="utf-8"?>
<!-- Generator: Adobe Illustrator 22.1.0, SVG Export Plug-In . SVG Version: 6.00 Build 0)  -->
<svg version="1.1" id="Layer_1" xmlns="http://www.w3.org/2000/svg" xmlns:xlink="http://www.w3.org/1999/xlink" x="0px" y="0px"
	 viewBox="0 0 1500 2094.6" style="enable-background:new 0 0 1500 2094.6;" xml:space="preserve">
<style type="text/css">
	.st0{fill:#404040;}
</style>
<g>
	<polygon class="st0" points="708.7,838.4 709.1,837.9 709.1,835.5 708.7,835 705.8,835 704.1,833.2 704.1,821.1 707.3,820.1 
		720.7,838.4 721,838.6 722.3,838.6 724.4,838.1 724.8,837.7 724.8,814.3 726.5,812.6 727.7,812.5 728.1,812.1 728.1,809.7 
		727.7,809.3 716.7,809.3 716.3,809.7 716.3,812.1 716.7,812.7 719.3,812.7 721,814.4 721,827.3 717.9,828.3 704.1,809.4 
		703.7,809.3 697.2,809.3 696.8,809.7 696.8,812.1 697.2,812.6 698.6,812.6 700.2,814.3 700.2,833.3 698.5,835 697.2,835.1 
		696.8,835.5 696.8,837.9 697.2,838.4 	"/>
	<path class="st0" d="M714.4,1283.6l-4.3-0.7c-4.4-0.7-6.2-1.8-6.2-4.7c0-3,2.7-4.5,8-4.5c1.1,0,2.4,0.1,3.4,0.3l1.5,1.9l-0.4,3.2
		l0.3,0.5l2.4,0.4l0.5-0.3l0.7-2.6l2.2-1.4l0.9-2.2l-0.2-0.5c-2.9-1.6-7.2-2.6-11.4-2.6c-7.5,0-12,2.9-12,8.2c0,4.5,3,7.2,9.1,8
		l4.4,0.6c4.5,0.6,6.2,2,6.2,4.9c0,3.6-2.8,5.1-8.2,5.1c-2,0-3.5-0.2-4.9-0.4l-1.3-1.8v-3.4l-0.4-0.6h-2.3l-0.5,0.3l-0.4,2.2
		l-2.2,1.5l-1,2.6l0.3,0.5c3.9,1.7,7.8,2.4,12.8,2.4c7.8,0,12.2-3.4,12.2-8.6C723.6,1287.3,720.6,1284.5,714.4,1283.6z"/>
	<polygon class="st0" points="952.7,1064 953.5,1058 953.1,1057.6 950.5,1057.2 950.1,1057.6 948.9,1064.1 947.1,1065.5 
		936.7,1065.5 935,1063.8 935,1057 936.7,1055.3 945.7,1055.3 946.1,1054.8 946.1,1052.3 945.7,1051.9 936.7,1051.9 935,1050.1 
		935,1045 936.7,1043.3 945.9,1043.3 947.6,1044.7 948.4,1049.4 948.9,1049.7 951.4,1049.4 951.8,1049 951.4,1044.8 953.5,1042.5 
		953.5,1040.3 953,1039.9 928,1039.9 927.5,1040.3 927.5,1042.7 927.9,1043.2 929.4,1043.2 931.1,1045 931.1,1063.9 929.4,1065.7 
		928,1065.7 927.5,1066.1 927.5,1068.6 928,1069 954,1069 954.5,1068.6 954.5,1066.3 	"/>
	<polygon class="st0" points="489,1037.8 488.5,1038.2 488.5,1040.6 489,1041.1 490.4,1041.1 492,1043.4 487.8,1057 484.4,1057 
		479.2,1039 478.8,1038.7 475.3,1038.7 474.9,1039 469.7,1057 466.3,1057 462.2,1043.4 463.8,1041.1 465.7,1041.1 466.1,1040.6 
		466.1,1038.2 465.7,1037.8 454.9,1037.8 454.5,1038.2 454.5,1040.6 454.9,1041.1 456,1041.1 457.6,1042.3 465.6,1066.7 466,1067 
		470.1,1067 470.6,1066.7 475.3,1050.2 478.6,1050.2 483.3,1066.7 483.7,1067 487.9,1067 488.3,1066.7 496.3,1042.3 497.9,1041.1 
		498.9,1041.1 499.3,1040.6 499.3,1038.2 498.9,1037.8 	"/>
	<path class="st0" d="M868.4,1189.1l-2.8,2.1c-2.8,2.2-4.5,2.3-6.2,0.7c-2-2-1.3-4.4,1.7-7.4c1.1-1.1,2-1.8,2.9-2.5l1.7,0.3l1.9,1.9
		l0.6,0.1l1.3-1.3l0.1-0.5l-1-1.5l0.4-2.1l-0.9-2l-0.4-0.1c-3.1,1.3-5.7,3-8.5,5.7c-4.4,4.4-4.8,8.7-2,11.5c2.6,2.6,5.9,2.5,9.9-0.4
		l2.8-2c2.8-2.1,4.4-2.4,6-0.8c1.7,1.7,1,4-2,7c-0.6,0.6-1.4,1.3-2.1,1.8l-1.9-0.3l-1.6-2l-0.5-0.1l-1.6,1.1l-0.1,0.4l1.1,1.8
		l-0.4,2l0.7,1.7l0.4,0.2c2.5-0.7,5.4-2.5,7.7-4.9c4.2-4.2,5.1-8.3,2.1-11.2C875.5,1186,872.4,1186.1,868.4,1189.1z"/>
	<polygon class="st0" points="864.7,1206.5 863.9,1207.2 862,1207.2 851.5,1196.7 851.5,1194.8 852.2,1194 852.2,1193.5 
		850.9,1192.2 850.4,1192.2 835.9,1206.6 835.9,1207.2 837.1,1208.3 839.4,1208.7 842.3,1212.5 842.8,1212.5 844.4,1211.2 
		844.4,1210.8 841.5,1206.5 841.6,1204.7 847.4,1199 849.3,1199 853.1,1202.7 853.1,1204.7 848.2,1209.6 848.2,1210.1 849.6,1211.5 
		850.1,1211.5 855,1206.6 857,1206.6 859.7,1209.4 859.7,1211.3 854.7,1216.4 853,1216.5 849.9,1214.5 849.4,1214.6 848.2,1216 
		848.2,1216.6 850.7,1218.6 850.9,1221 852.2,1222.3 852.6,1222.3 866.6,1208.3 866.6,1207.9 865.2,1206.5 	"/>
	<polygon class="st0" points="840.4,905.2 841.7,903.8 841.8,903.3 840.2,901.6 840.2,899.7 846.9,893 849.2,894.1 846.5,911.8 
		846.7,912.1 847.4,912.8 848.8,913.7 849.2,913.7 862.2,900.7 864.1,900.7 864.8,901.3 865.3,901.3 866.6,899.9 866.6,899.5 
		860.5,893.4 860.1,893.4 858.7,894.7 858.6,895.3 860.1,896.7 860.1,898.6 852.9,905.8 850.6,904.6 853.4,886.5 853.3,886.2 
		849.6,882.6 849.2,882.6 847.8,883.9 847.8,884.4 848.6,885.2 848.6,887.1 838,897.6 836.1,897.6 835.3,896.9 834.8,896.9 
		833.6,898.3 833.6,898.7 839.9,905.2 	"/>
	<polygon class="st0" points="868.1,906.6 857.6,917.2 855.7,917.2 854.9,916.5 854.5,916.5 853.1,917.8 853.1,918.3 867.6,932.7 
		868,932.7 869.3,931.5 869.6,929.2 873.3,926.4 873.4,925.9 872.2,924.3 871.7,924.2 867.4,927.2 865.7,927.1 859.9,921.2 
		859.9,919.4 863.6,915.6 865.5,915.6 870.5,920.5 870.9,920.5 872.4,919.1 872.4,918.6 867.4,913.7 867.4,911.7 870.3,908.9 
		872.2,908.9 877.2,913.9 877.4,915.6 875.3,918.7 875.4,919.2 877,920.4 877.4,920.4 879.5,917.9 882,917.7 883.1,916.5 883.1,916 
		869.3,902.1 868.8,902.1 867.4,903.5 867.4,904 868.2,904.7 	"/>
	<polygon class="st0" points="538.6,922.8 539.4,922 541.2,922.1 551.7,932.6 551.7,934.5 551.1,935.2 551.1,935.8 552.4,937.1 
		552.9,937.1 559.3,930.6 559.3,930.2 558,928.9 557.4,928.8 555.7,930.4 553.8,930.4 547.1,923.7 548.3,921.4 565.9,924 
		566.2,923.9 566.9,923.3 567.9,921.9 567.8,921.4 554.9,908.4 554.9,906.5 555.5,905.8 555.5,905.4 554.1,904 553.6,904 
		547.6,910.1 547.6,910.6 548.9,911.9 549.4,912 550.9,910.6 552.8,910.6 559.9,917.7 558.8,920 540.7,917.2 540.4,917.3 
		536.7,920.9 536.7,921.4 538.1,922.7 	"/>
	<polygon class="st0" points="557.6,903.7 558.2,903.1 559.8,902.9 577.8,911.9 578.1,911.9 580.5,909.5 580.5,909.1 574,897.4 
		575.8,895.6 587.6,902.1 588,902 590.4,899.7 590.4,899.3 581.3,881.4 581.5,879.9 582.1,879.3 582.1,878.8 580.8,877.4 
		580.2,877.4 574.7,882.9 574.7,883.4 576,884.7 576.6,884.7 577.4,884 579.5,884.4 584.7,894.3 582.8,896.1 569.9,889 569.5,889.1 
		567.6,891 567.6,891.4 574.7,904.3 572.8,906.1 563,900.9 562.6,898.7 563.6,897.6 563.6,897.2 562.3,895.8 561.8,895.8 
		555.8,901.8 555.8,902.3 557.2,903.7 	"/>
	<path class="st0" d="M576.4,1201c-2.6,2.6-2.5,5.9,0.4,9.9l2,2.8c2.1,2.8,2.4,4.4,0.8,6c-1.7,1.7-4,1-7-2c-0.6-0.6-1.3-1.4-1.8-2.1
		l0.3-1.9l2-1.6l0.1-0.5l-1.1-1.6l-0.4-0.1l-1.8,1.1l-2-0.4l-1.7,0.7l-0.1,0.4c0.7,2.5,2.5,5.4,4.9,7.7c4.2,4.2,8.3,5.1,11.2,2.1
		c2.5-2.5,2.4-5.6-0.6-9.5l-2.1-2.8c-2.2-2.8-2.3-4.5-0.7-6.2c2-2,4.4-1.3,7.4,1.7c1.1,1.1,1.8,2,2.5,2.9l-0.3,1.7l-1.9,1.9
		l-0.1,0.6l1.3,1.3l0.5,0.1l1.5-1l2.1,0.4l2-0.9l0.1-0.4c-1.3-3.1-3-5.7-5.7-8.5C583.5,1198.6,579.2,1198.1,576.4,1201z"/>
	<polygon class="st0" points="563.6,1206.6 572.6,1188.7 572.6,1188.2 570.3,1186 569.9,1185.9 558.1,1192.4 556.3,1190.6 
		562.8,1178.8 562.8,1178.4 560.4,1176.1 560,1176 542.1,1185.1 540.5,1184.9 539.9,1184.3 539.4,1184.3 538.1,1185.7 538.1,1186.2 
		543.6,1191.7 544.1,1191.7 545.5,1190.3 545.5,1189.9 544.7,1189.1 545.1,1186.9 554.9,1181.7 556.8,1183.6 549.7,1196.4 
		549.8,1196.9 551.7,1198.8 552.1,1198.9 565,1191.8 566.8,1193.6 561.6,1203.5 559.4,1203.9 558.4,1202.8 557.9,1202.8 
		556.5,1204.1 556.5,1204.6 562.6,1210.6 563,1210.6 564.4,1209.3 564.5,1208.8 563.8,1208.1 	"/>
	<path class="st0" d="M886.6,1048.8c-2.4-92-76.4-166.5-168.3-169.6l-3.2-35.1c-0.9,0-1.9-0.1-2.8-0.1c-0.5,0-0.9,0-1.4,0l-3.2,35
		c-92,2.5-166.5,76.5-169.6,168.4l-35.1,3.2c0,0.9-0.1,1.9-0.1,2.8c0,0.5,0,0.9,0,1.4l35,3.2c2.4,92,76.5,166.5,168.3,169.6
		l3.2,35.1c0.9,0,1.9,0.1,2.8,0.1c0.5,0,0.9,0,1.4,0l3.2-35c92-2.4,166.5-76.5,169.6-168.3l35.1-3.2c0-0.9,0.1-1.9,0.1-2.8
		c0-0.5,0-0.9,0-1.4L886.6,1048.8z M853,955.2c14.1,20.1,23.9,43.3,28.4,68.4l-8.3,1.5c-4.2-23.8-13.6-45.9-27-65L853,955.2z
		 M742.3,884.4c25.1,4.5,48.3,14.3,68.4,28.4l-4.8,6.9c-19.1-13.4-41.2-22.8-65-27L742.3,884.4z M872.7,1047.5l-4.9-0.5
		c-3.3-80.3-67.6-145.1-147.7-149.1l-0.5-4.9C802.8,896.9,869.7,964.2,872.7,1047.5z M826.9,1012.3c-2.3-6.4-5.2-12.6-8.5-18.5
		l11-18.1l-21,3.2c-2.2-2.8-4.6-5.6-7-8.3l16.6-20.8c0.5-0.6,0.4-1.4-0.1-1.9c-0.5-0.5-1.4-0.5-1.9,0.1l-19.7,17.4
		c-3-2.8-6.2-5.6-9.5-8.1l3.2-21l-18.1,11.1c-5.9-3.3-12.1-6.2-18.5-8.5l-3.4-20.8l-13.7,16.1c-4.2-0.8-8.5-1.5-12.8-1.8l-3-31.8
		c78.6,4.1,141.7,67.6,145.1,146.5l-31.8-3c-0.4-4.9-1.1-9.7-2-14.4l16-13.7L826.9,1012.3z M831.8,1077c0.8-4.1,1.4-8.2,1.8-12.5
		l31.8-3c-4.1,78.6-67.6,141.7-146.5,145.1l3-31.8c4.7-0.3,9.2-1,13.7-1.9l13.6,16.2l3.6-20.8c6.5-2.3,12.6-5.1,18.6-8.4l18,11.2
		l-3-21c3.1-2.4,6-4.9,8.9-7.5l20.8,16.6c0.6,0.5,1.4,0.4,1.9-0.1c0.5-0.5,0.5-1.4-0.1-1.9l-17.4-19.7c3-3.1,5.7-6.4,8.3-9.7l21,3.1
		l-11.1-18c3.3-5.9,6.2-12.1,8.5-18.6l20.8-3.5L831.8,1077z M788,1145.2c-4.8,4-9.9,7.6-15.3,10.8l-15.1-26.2
		c3.9-2.3,7.6-4.9,11-7.8L788,1145.2z M774.9,1126.5l18.1,14.4c-1.1,1.1-2.3,2.1-3.4,3.1L774.9,1126.5z M743.6,1136.5
		c4.3-1.6,8.3-3.5,12.2-5.7l15.1,26.2c-5.4,3-11.1,5.7-17,8L743.6,1136.5z M752,1165.7c-5.8,2.1-11.9,3.7-18.1,4.9l-5.3-29.7
		c4.5-0.8,8.8-2,13-3.5L752,1165.7z M725.7,1134.5l4.1-43.8l33.8,26.8C752.8,1126.2,739.8,1132.1,725.7,1134.5z M726.7,1141.1
		l5.3,29.8c-3.2,0.5-6.5,0.9-9.8,1.2l2.8-30.8C725.6,1141.3,726.1,1141.2,726.7,1141.1z M802.7,1130.7c-1.3,1.6-2.6,3-4.1,4.5
		l-18.7-23.6L802.7,1130.7z M780.9,1109.8c2.8-3.4,5.4-7.2,7.7-11l26.2,15.1c-3.2,5.4-6.8,10.5-10.8,15.3L780.9,1109.8z
		 M829.6,1073.2l-29.8-5.3c0-0.1,0-0.1,0.1-0.3l30.8-2.9C830.4,1067.6,830.1,1070.4,829.6,1073.2z M829.3,1075.1
		c-1.1,6.2-2.8,12.2-4.9,18.1l-28.4-10.3c1.5-4.2,2.6-8.5,3.5-13L829.3,1075.1z M823.8,1095.1c-2.2,5.9-4.9,11.6-7.9,17l-26.2-15.1
		c2.2-3.9,4.1-8,5.7-12.2L823.8,1095.1z M775.4,1105.9l-26.6-33.5l44.2-4.1C790.4,1082.4,784.3,1095.3,775.4,1105.9z M798.7,1141.9
		l-67.7-53.8l-7-14.1c1.4-0.8,2.8-1.8,4-2.8L798.7,1141.9z M768.5,984.9c-3.4-2.8-7.2-5.4-11-7.7l15.1-26.2
		c5.4,3.2,10.5,6.8,15.3,10.8L768.5,984.9z M789.5,963c1.6,1.3,3,2.6,4.5,4.1l-23.6,18.7L789.5,963z M755.8,976.1
		c-3.9-2.2-8-4.1-12.2-5.7l10.3-28.4c5.9,2.2,11.6,4.9,17,7.9L755.8,976.1z M741.7,969.7c-4.2-1.5-8.5-2.6-13-3.5l5.3-29.7
		c6.2,1.1,12.2,2.8,18.1,4.9L741.7,969.7z M726.7,965.9c-0.1,0-0.1,0-0.3-0.1l-2.9-30.8c2.8,0.3,5.6,0.6,8.4,1.1L726.7,965.9z
		 M764.7,990.3l-33.5,26.6l-4.1-44.2C741.2,975.3,754,981.6,764.7,990.3z M800.7,967l-53.8,67.7l-14.1,7c-0.8-1.4-1.8-2.8-2.8-4
		L800.7,967z M785.3,991l14.4-18.1c1.1,1.1,2.1,2.3,3.1,3.4L785.3,991z M804.1,977.8c4,4.8,7.6,9.9,10.8,15.3l-26.2,15.1
		c-2.3-3.9-4.9-7.6-7.8-11L804.1,977.8z M776.3,1002.2c8.7,10.8,14.6,23.7,17,37.9l-43.8-4.1L776.3,1002.2z M789.6,1010l26.2-15.1
		c3,5.4,5.7,11.1,8,17l-28.4,10.3C793.7,1017.9,791.8,1013.9,789.6,1010z M824.4,1013.7c2.1,5.8,3.7,11.9,4.9,18.1l-29.7,5.3
		c-0.8-4.5-2-8.8-3.5-13L824.4,1013.7z M829.6,1033.8c0.5,3.2,0.9,6.5,1.2,9.8l-30.8-2.8c-0.1-0.5-0.2-1.1-0.3-1.7L829.6,1033.8z
		 M713.7,858.7l14.8,159l-7,14c-2.4-1-5.1-1.7-7.9-1.8L713.7,858.7L713.7,858.7z M682.3,884.4l1.5,8.3c-23.8,4.2-45.9,13.6-65,27
		l-4.8-6.9C634,898.7,657.2,888.9,682.3,884.4z M706.3,893.1l-0.5,4.9c-80.3,3.3-145.1,67.6-149.1,147.7l-4.9,0.5
		C555.7,963,623,896.1,706.3,893.1z M597.7,1094.7c2.3,6.4,5.2,12.6,8.5,18.5l-11,18.1l21-3.2c2.2,2.8,4.6,5.6,7,8.3l-16.6,20.8
		c-0.5,0.6-0.4,1.4,0.1,1.9c0.5,0.5,1.4,0.5,1.9-0.1l19.7-17.4c3,2.8,6.2,5.6,9.5,8.1l-3.2,21l18.1-11.1c5.9,3.3,12.1,6.2,18.5,8.5
		l3.4,20.8l13.7-16.1c4.2,0.8,8.5,1.5,12.8,1.8l3,31.8c-78.6-4.1-141.7-67.7-145.1-146.5l31.8,3c0.4,4.9,1.1,9.7,2,14.4l-16,13.7
		L597.7,1094.7z M620.5,1129.2c-4-4.8-7.6-9.9-10.8-15.3l26.2-15.1c2.3,3.9,4.9,7.6,7.8,11L620.5,1129.2z M639.3,1116l-14.4,18.1
		c-1.1-1.1-2.1-2.3-3.1-3.4L639.3,1116z M631.3,1066.9l43.8,4.1l-26.8,33.8C639.6,1094,633.6,1081.1,631.3,1066.9z M635,1097
		l-26.2,15.1c-3-5.4-5.7-11.1-8-17l28.4-10.3C630.9,1089,632.7,1093.1,635,1097z M600.1,1093.3c-2.1-5.8-3.7-11.9-4.9-18.1l29.7-5.3
		c0.8,4.5,2,8.8,3.5,13L600.1,1093.3z M594.9,1073.2c-0.5-3.2-0.9-6.5-1.2-9.8l30.8,2.8c0.1,0.5,0.2,1.1,0.3,1.7L594.9,1073.2z
		 M670.6,1165c-5.9-2.2-11.6-4.9-17-7.9l15.1-26.2c3.9,2.2,8,4.1,12.2,5.7L670.6,1165z M682.8,1137.3c4.2,1.5,8.5,2.6,13,3.5
		l-5.3,29.7c-6.2-1.1-12.2-2.8-18.1-4.9L682.8,1137.3z M651.9,1156c-5.4-3.2-10.5-6.8-15.3-10.8l19.4-23.2c3.4,2.8,7.2,5.4,11,7.7
		L651.9,1156z M635,1144c-1.6-1.3-3-2.6-4.5-4.1l23.6-18.7L635,1144z M692.6,1170.9l5.3-29.8c0.1,0,0.1,0,0.3,0.1l2.9,30.8
		C698.2,1171.7,695.4,1171.3,692.6,1170.9z M659.9,1116.6l33.5-26.6l4.1,44.2C683.4,1131.7,670.5,1125.4,659.9,1116.6z M623.9,1140
		l53.8-67.7l14.1-7c0.8,1.4,1.8,2.8,2.8,4L623.9,1140z M595.3,1031.9c1.1-6.2,2.8-12.2,4.9-18.1l28.4,10.3c-1.5,4.2-2.6,8.5-3.5,13
		L595.3,1031.9z M624.7,1039.1c0,0.1,0,0.1-0.1,0.3l-30.8,2.9c0.3-2.8,0.6-5.6,1.1-8.4L624.7,1039.1z M600.8,1011.8
		c2.2-5.9,4.9-11.6,7.9-17l26.2,15.1c-2.2,3.9-4.1,8-5.7,12.2L600.8,1011.8z M643.7,997.2c-2.8,3.4-5.4,7.2-7.7,11l-26.2-15.1
		c3.2-5.4,6.8-10.5,10.8-15.3L643.7,997.2z M621.8,976.3c1.3-1.6,2.6-3,4.1-4.5l18.7,23.6L621.8,976.3z M649.2,1001.1l26.6,33.5
		l-44.2,4.1C634.2,1024.6,640.3,1011.7,649.2,1001.1z M625.8,965.1l67.7,53.8l7,14.1c-1.4,0.8-2.8,1.8-4,2.8L625.8,965.1z
		 M682.8,969.7l-10.3-28.5c5.8-2.1,11.9-3.7,18.1-4.9l5.3,29.7C691.4,967.1,687.1,968.3,682.8,969.7z M698.9,972.5l-4.1,43.8
		L661,989.5C671.8,980.8,684.7,974.9,698.9,972.5z M681,970.4c-4.3,1.6-8.3,3.5-12.2,5.7L653.6,950c5.4-3,11.1-5.7,17-8L681,970.4z
		 M667,977.2c-3.9,2.3-7.6,4.9-11,7.8l-19.5-23.2c4.8-4,9.9-7.6,15.3-10.8L667,977.2z M649.7,980.5l-18.1-14.4
		c1.1-1.1,2.3-2.1,3.4-3.1L649.7,980.5z M699.5,965.7c-0.5,0.1-1.1,0.2-1.7,0.3l-5.3-29.8c3.2-0.5,6.5-0.9,9.8-1.2L699.5,965.7z
		 M688.9,934l-13.6-16.2l-3.6,20.8c-6.5,2.3-12.6,5.1-18.6,8.4l-18-11.2l3,21c-3.1,2.4-6,4.9-8.9,7.5l-20.8-16.6
		c-0.6-0.5-1.4-0.4-1.9,0.1c-0.5,0.5-0.5,1.4,0.1,1.9l17.4,19.7c-3,3.1-5.7,6.4-8.3,9.7l-21-3.1l11.1,18c-3.3,5.9-6.2,12.1-8.5,18.6
		l-20.8,3.5l16.1,13.7c-0.8,4.1-1.4,8.2-1.8,12.5l-31.8,3c4.1-78.6,67.7-141.7,146.5-145.1l-3,31.8C698,932.5,693.5,933.1,688.9,934
		z M571.6,955.2l6.9,4.8c-13.4,19.1-22.8,41.2-27,65l-8.3-1.5C547.6,998.5,557.5,975.3,571.6,955.2z M517.5,1052.1l159-14.8l14,7
		c-1,2.4-1.7,5.1-1.8,7.9L517.5,1052.1L517.5,1052.1z M571.6,1151.8c-14.1-20.1-23.9-43.3-28.4-68.4l8.3-1.5
		c4.2,23.8,13.6,45.9,27,65L571.6,1151.8z M682.3,1222.6c-25.1-4.5-48.3-14.3-68.4-28.4l4.8-6.9c19.1,13.4,41.2,22.8,65,27
		L682.3,1222.6z M551.8,1059.4l4.9,0.5c3.3,80.3,67.6,145.1,147.7,149.1l0.5,4.9C621.8,1210.1,554.9,1142.8,551.8,1059.4z
		 M710.9,1248.3l-14.8-159l7-14c2.4,1,5.1,1.7,7.9,1.8L710.9,1248.3L710.9,1248.3z M712.3,1071.6c-10,0-18.1-8.1-18.1-18.1
		c0-10,8.1-18.1,18.1-18.1s18.1,8.1,18.1,18.1C730.4,1063.5,722.3,1071.6,712.3,1071.6z M742.3,1222.6l-1.5-8.3
		c23.8-4.2,45.9-13.6,65-27l4.8,6.9C790.6,1208.3,767.4,1218.1,742.3,1222.6z M718.3,1213.9l0.5-4.9
		c80.3-3.3,145.1-67.6,149.1-147.7l4.9-0.5C868.9,1144,801.6,1210.9,718.3,1213.9z M853,1151.8l-6.9-4.8c13.4-19.1,22.8-41.2,27-65
		l8.3,1.5C877,1108.5,867,1131.7,853,1151.8z M748.1,1069.7l-14-7c1-2.4,1.7-5.1,1.8-7.9h171.1L748.1,1069.7z"/>
	<circle class="st0" cx="712.3" cy="1053.5" r="11.5"/>
</g>
</svg>
